<svg width="80" height="69" viewBox="0 0 80 69" fill="none" xmlns="http://www.w3.org/2000/svg">
<path d="M59.3289 0H18.5235L0 33.4302L18.5235 69H62.0134L80 33.4302L59.3289 0Z" fill="#FEC901"/>
<g clip-path="url(#clip0_373_143)">
<path d="M28.7523 16.2448C28.7523 15.5573 28.195 15 27.5075 15C26.82 15 26.2627 15.5573 26.2627 16.2448V17.6556H28.7523V16.2448Z" fill="black"/>
<path d="M38.7167 16.2448C38.7167 15.5573 38.1593 15 37.4719 15C36.7844 15 36.2271 15.5573 36.2271 16.2448V17.6556H38.7167V16.2448Z" fill="black"/>
<path d="M48.6669 16.2448C48.6669 15.5573 48.1095 15 47.4221 15C46.7346 15 46.1772 15.5573 46.1772 16.2448V17.6556H48.6669V16.2448Z" fill="black"/>
<path d="M53.6523 18.9003C53.6523 18.2129 53.0949 17.6555 52.4074 17.6555H48.667V20.3061C48.667 20.9935 48.1097 21.5509 47.4222 21.5509C46.7347 21.5509 46.1774 20.9935 46.1774 20.3061V17.6555H38.7168V20.3061C38.7168 20.9935 38.1595 21.5509 37.472 21.5509C36.7845 21.5509 36.2272 20.9935 36.2272 20.3061V17.6555H28.7522V20.3061C28.7522 20.9935 28.1948 21.5509 27.5074 21.5509C26.8199 21.5509 26.2625 20.9935 26.2625 20.3061V17.6555H22.5319C21.8445 17.6555 21.2871 18.2129 21.2871 18.9003V25.8713H53.6523V18.9003Z" fill="black"/>
<path d="M39.4074 49.9387L36.2182 49.937C35.5303 49.9362 34.9734 49.3785 34.9742 48.6914C34.9742 48.0066 35.5293 47.4474 36.2199 47.4474L38.8556 47.4482C38.7726 46.653 38.7737 45.8071 38.8738 44.9586H36.2191C35.5311 44.9586 34.9742 44.4009 34.9742 43.7138C34.9742 43.0266 35.5311 42.469 36.2191 42.469H39.4664C41.546 36.7443 47.8602 33.6885 53.6523 35.6947V28.3611H21.2871V53.6723C21.2871 54.3594 21.8448 54.9171 22.5319 54.9171H42.863C41.2947 53.6175 40.0854 51.9013 39.4074 49.9387ZM43.6879 32.5105H46.1859C46.873 32.5105 47.4307 33.0681 47.4307 33.7553C47.4307 34.4424 46.873 35.0001 46.1859 35.0001H43.6879C43 35.0001 42.4431 34.4424 42.4431 33.7553C42.4431 33.0681 43 32.5105 43.6879 32.5105ZM36.2191 32.5105H38.717C39.4041 32.5105 39.9618 33.0681 39.9618 33.7553C39.9618 34.4424 39.4041 35.0001 38.717 35.0001H36.2191C35.5311 35.0001 34.9742 34.4424 34.9742 33.7553C34.9742 33.0681 35.5311 32.5105 36.2191 32.5105ZM36.2191 37.4897H38.717C39.4041 37.4897 39.9618 38.0474 39.9618 38.7345C39.9618 39.4217 39.4041 39.9793 38.717 39.9793H36.2191C35.5311 39.9793 34.9742 39.4217 34.9742 38.7345C34.9742 38.0474 35.5311 37.4897 36.2191 37.4897ZM31.2482 49.9329C31.2474 49.9329 31.2474 49.9329 31.2474 49.9329L28.7494 49.9304C28.0615 49.9304 27.5046 49.3727 27.5054 48.6847C27.5054 47.9976 28.0631 47.4408 28.7503 47.4408H28.7511L31.249 47.4432C31.9362 47.4441 32.493 48.0017 32.493 48.6889C32.4921 49.376 31.9353 49.9329 31.2482 49.9329ZM31.2482 44.9586H28.7503C28.0623 44.9586 27.5054 44.4009 27.5054 43.7138C27.5054 43.0266 28.0623 42.469 28.7503 42.469H31.2482C31.9353 42.469 32.493 43.0266 32.493 43.7138C32.493 44.4009 31.9353 44.9586 31.2482 44.9586ZM31.2482 39.9793H28.7503C28.0623 39.9793 27.5054 39.4217 27.5054 38.7345C27.5054 38.0474 28.0623 37.4897 28.7503 37.4897H31.2482C31.9353 37.4897 32.493 38.0474 32.493 38.7345C32.493 39.4217 31.9353 39.9793 31.2482 39.9793Z" fill="black"/>
<path d="M49.9988 37.5728C45.1941 37.5728 41.2852 41.4817 41.2852 46.2864C41.2852 51.0912 45.1941 55.0001 49.9988 55.0001C54.8036 55.0001 58.7125 51.0912 58.7125 46.2864C58.7125 41.4817 54.8036 37.5728 49.9988 37.5728ZM52.0735 47.0333C52.0735 47.7208 51.5162 48.2781 50.8287 48.2781H47.0154C46.328 48.2781 45.7706 47.7208 45.7706 47.0333C45.7706 46.3459 46.328 45.7885 47.0154 45.7885H49.5839V42.0541C49.5839 41.3666 50.1413 40.8093 50.8287 40.8093C51.5162 40.8093 52.0735 41.3666 52.0735 42.0541V47.0333Z" fill="black"/>
</g>
<defs>
<clipPath id="clip0_373_143">
<rect width="40" height="40" fill="white" transform="translate(20 15)"/>
</clipPath>
</defs>
</svg>
