<svg width="80" height="69" viewBox="0 0 80 69" fill="none" xmlns="http://www.w3.org/2000/svg">
<path d="M59.3289 0H18.5235L0 33.4302L18.5235 69H62.0134L80 33.4302L59.3289 0Z" fill="#FEC901"/>
<path d="M39.9994 23.9998C42.7608 23.9998 44.9993 21.7613 44.9993 18.9999C44.9993 16.2385 42.7608 14 39.9994 14C37.238 14 34.9995 16.2385 34.9995 18.9999C34.9995 21.7613 37.238 23.9998 39.9994 23.9998Z" fill="black"/>
<path d="M49.7175 50.3828L43.5601 52.692L46.6221 53.8403C47.9399 54.3296 49.3618 53.6517 49.841 52.3768C50.0961 51.6966 50.0206 50.9841 49.7175 50.3828Z" fill="black"/>
<path d="M28.3781 41.6582C27.0879 41.1797 25.645 41.8291 25.1592 43.1217C24.6746 44.4144 25.3301 45.8548 26.6227 46.3406L29.3198 47.3519L36.4403 44.6814L28.3781 41.6582Z" fill="black"/>
<path d="M54.8408 43.1218C54.3549 41.829 52.9121 41.1797 51.6219 41.6583L31.6223 49.1581C30.3296 49.6439 29.6741 51.0843 30.1587 52.377C30.6379 53.6514 32.0594 54.33 33.3776 53.8405L53.3772 46.3407C54.67 45.8549 55.3255 44.4145 54.8408 43.1218Z" fill="black"/>
<path d="M57.4996 33.9995H51.5452L47.2362 25.3815C46.7884 24.4868 45.8775 23.977 44.9386 23.9998H40H35.0611C34.1224 23.977 33.2127 24.4869 32.7638 25.3815L28.4548 33.9995H22.5004C21.1199 33.9995 20.0005 35.1189 20.0005 36.4994C20.0005 37.88 21.1199 38.9993 22.5004 38.9993H30.0002C30.9475 38.9993 31.813 38.4647 32.2365 37.6175L35.0001 32.0904V41.4716L39.9998 43.3464L44.9999 41.4711V32.0904L47.7635 37.6175C48.1871 38.4647 49.0525 38.9993 49.9997 38.9993H57.4996C58.8801 38.9993 59.9995 37.88 59.9995 36.4994C59.9995 35.1189 58.8802 33.9995 57.4996 33.9995Z" fill="black"/>
</svg>
