<svg width="74" height="74" viewBox="0 0 74 74" fill="none" xmlns="http://www.w3.org/2000/svg">
<g clip-path="url(#clip0_373_198)">
<path d="M9.97844 26.8309C10.6557 25.4229 11.8806 24.3063 13.4343 23.7883C18.3371 22.154 21.8325 17.7769 22.339 12.6369C22.3986 12.0321 22.1981 11.4265 21.7892 10.9753C21.3782 10.5217 20.7917 10.2617 20.18 10.2617H15.7814C7.07943 10.2617 0 17.3411 0 26.0431C0 29.7139 1.28748 33.2413 3.5309 36.0422C4.31498 33.2929 5.8038 30.748 7.91236 28.6195C8.55697 27.969 9.2487 27.3718 9.97844 26.8309Z" fill="white"/>
<path d="M70.7933 18.47L66.9489 17.1894C65.4976 16.7057 64.2532 15.5491 63.4446 13.933C61.5222 10.0906 57.1793 8.04449 53.0117 8.9666C50.7319 6.09808 47.9907 4.22944 46.3631 3.27958C45.8051 2.95381 45.1106 2.95222 44.5506 3.27582C43.9907 3.59899 43.6446 4.2014 43.6478 4.84746C43.6577 6.93535 43.9604 10.7711 45.7237 14.5548L42.8455 23.1594C41.9588 25.8194 39.4793 27.6066 36.6754 27.6066H20.6533C17.073 27.6066 13.5518 29.0881 10.9927 31.6713C8.5328 34.1545 7.1956 37.3744 7.22711 40.738C7.26179 44.431 8.82822 47.8562 11.5625 50.2952V68.7981C11.5625 69.9954 12.5331 70.966 13.7304 70.966H21.6182C22.2987 70.966 22.9605 70.6777 23.3808 70.1426C23.9713 69.3911 23.9969 68.3659 23.4834 67.5956L20.957 63.8055V58.2711C22.4603 56.9716 23.7269 55.3932 24.6888 53.6221C25.6781 51.9521 26.3431 50.0886 26.6086 48.1483C26.7568 47.0656 27.6672 46.251 28.76 46.251C30.0658 46.251 31.0844 47.3977 30.9126 48.6922C30.6863 50.3962 30.2262 52.0551 29.5562 53.6221H41.6536L42.9333 68.978C43.0268 70.1016 43.9661 70.9659 45.0937 70.9659H52.9822C53.6625 70.9659 54.3241 70.6774 54.7444 70.1425C55.3346 69.3909 55.3604 68.3656 54.8468 67.5954L52.3846 63.9019L53.6531 50.774C58.2067 47.6984 60.9922 42.5205 60.9922 37.001V27.6065H69.3117C71.9009 27.6065 74 25.5075 74 22.9182C74 20.8997 72.7082 19.1079 70.7933 18.47Z" fill="white"/>
</g>
<defs>
<clipPath id="clip0_373_198">
<rect width="74" height="74" fill="white"/>
</clipPath>
</defs>
</svg>
