<svg width="74" height="74" viewBox="0 0 74 74" fill="none" xmlns="http://www.w3.org/2000/svg">
<path d="M37 6.9375L11.5625 19.6562V67.0625C11.5625 68.3402 12.5973 69.375 13.875 69.375H60.125C61.4027 69.375 62.4375 68.3402 62.4375 67.0625V19.6562L37 6.9375Z" fill="white"/>
<path d="M35.8438 53.1875H28.9062V10.9844L24.2812 13.2969V53.1875H17.3438C16.0661 53.1875 15.0312 54.2223 15.0312 55.5V57.8125H38.1562V55.5C38.1562 54.2223 37.1214 53.1875 35.8438 53.1875Z" fill="#303030"/>
<path d="M37 6.9375L11.5625 19.6562V23.125L37 10.4062L62.4375 23.125V19.6562L37 6.9375Z" fill="#F0F0F0"/>
<path d="M37 9.24992L64.069 22.785C65.4449 23.4718 67.0625 22.4716 67.0625 20.935C67.0625 20.151 66.6197 19.4353 65.919 19.085L38.0337 5.14176C37.3827 4.8157 36.6161 4.8157 35.9652 5.14176L8.08103 19.085C7.38034 19.4353 6.9375 20.151 6.9375 20.935C6.9375 22.4728 8.55509 23.473 9.93103 22.785L37 9.24992Z" fill="white"/>
<path d="M38.1562 64.75H59.5064C59.8995 64.0701 60.125 63.2804 60.125 62.4375C60.125 59.8833 58.0542 57.8125 55.5 57.8125C53.4823 57.8125 51.7665 59.104 51.1352 60.9055C50.3998 60.4129 49.5141 60.125 48.5625 60.125C48.5625 57.8379 46.9021 55.9394 44.7214 55.5671C43.7883 52.8372 41.2018 50.875 38.1562 50.875C34.3244 50.875 31.2188 53.9807 31.2188 57.8125C31.2188 61.6443 34.3244 64.75 38.1562 64.75Z" fill="#D2D2D2"/>
<path d="M60.125 69.375H13.875C12.5973 69.375 11.5625 68.3402 11.5625 67.0625V64.75H62.4375V67.0625C62.4375 68.3402 61.4027 69.375 60.125 69.375Z" fill="white"/>
<path d="M23.4556 48.5624H27.4198V14.7616C27.4198 13.7241 26.5328 12.8838 25.4377 12.8838C24.3426 12.8838 23.4556 13.7241 23.4556 14.7616V48.5624Z" fill="#FEC901"/>
<path d="M27.75 53.1875V48.5625H23.125V53.1875H16.1875C14.9098 53.1875 13.875 54.2223 13.875 55.5V57.8125H37V55.5C37 54.2223 35.9652 53.1875 34.6875 53.1875H27.75Z" fill="#303030"/>
<path d="M23.125 47.4062H27.75V48.5625H23.125V47.4062Z" fill="white"/>
<path d="M34.6875 64.75H16.1875C14.9098 64.75 13.875 63.7152 13.875 62.4375V57.8125H37V62.4375C37 63.7152 35.9652 64.75 34.6875 64.75Z" fill="#FAB400"/>
<path d="M13.875 57.8125H37V58.9688H13.875V57.8125Z" fill="#DC9600"/>
<path d="M30.0625 62.4375H32.375C32.375 59.8833 34.4458 57.8125 37 57.8125C39.5542 57.8125 41.625 59.8833 41.625 62.4375C42.9027 62.4375 43.9375 63.4723 43.9375 64.75H27.75C27.75 63.4723 28.7848 62.4375 30.0625 62.4375Z" fill="#F0F0F0"/>
<path d="M34.6875 41.625C35.9647 41.625 37 40.5897 37 39.3125C37 38.0353 35.9647 37 34.6875 37C33.4103 37 32.375 38.0353 32.375 39.3125C32.375 40.5897 33.4103 41.625 34.6875 41.625Z" fill="#F0F0F0"/>
<path d="M46.25 48.5625C48.8043 48.5625 50.875 46.4918 50.875 43.9375C50.875 41.3832 48.8043 39.3125 46.25 39.3125C43.6957 39.3125 41.625 41.3832 41.625 43.9375C41.625 46.4918 43.6957 48.5625 46.25 48.5625Z" fill="#F0F0F0"/>
</svg>
