<svg width="74" height="74" viewBox="0 0 74 74" fill="none" xmlns="http://www.w3.org/2000/svg">
<path d="M67.6406 27.4609V19.5233C67.6406 15.7713 65.1697 13.5859 61.4177 13.5859H13.7623C10.0108 13.5859 6.35938 15.7713 6.35938 19.5233V27.4609H7.39422C10.6652 27.4609 12.7188 29.2554 12.7188 32.5265V40.7578H61.2812V32.5265C61.2812 29.2554 64.5147 27.4609 67.7857 27.4609H67.6406Z" fill="white"/>
<path d="M12.7188 43.0703V43.7866V45.3782C12.7188 46.4969 14.2363 48.2734 15.3544 48.2734H59.8255C60.9436 48.2734 61.2812 46.4969 61.2812 45.3782V43.7866V43.0703H12.7188Z" fill="white"/>
<path d="M70.97 29.7734H67.7857C65.7895 29.7734 63.5938 30.5302 63.5938 32.5265V43.7866V45.3782C63.5938 47.7716 62.219 50.5859 59.8255 50.5859H15.3544C12.961 50.5859 10.4062 47.7716 10.4062 45.3782V43.7866V32.5265C10.4062 30.5302 9.39048 29.7734 7.39422 29.7734H4.20991C2.21422 29.7734 0 30.5302 0 32.5265V46.9611C0 50.7131 3.64277 54.6328 7.39422 54.6328H6.9375V58.9688C6.9375 59.2879 7.7833 60.4141 8.103 60.4141H12.1406C12.4598 60.4141 12.1406 59.2879 12.1406 58.9688V54.6328H61.8594V58.9688C61.8594 59.2879 62.6618 60.4141 62.9809 60.4141H67.0186C67.3377 60.4141 67.0625 59.2879 67.0625 58.9688V54.6328H67.7857C71.5378 54.6328 74 50.7131 74 46.9611V32.5265C74 30.5302 72.9663 29.7734 70.97 29.7734Z" fill="white"/>
</svg>
