<svg width="74" height="74" viewBox="0 0 74 74" fill="none" xmlns="http://www.w3.org/2000/svg">
<path d="M69.375 12.7188C70.6522 12.7188 71.6875 11.6834 71.6875 10.4062C71.6875 9.12909 70.6522 8.09375 69.375 8.09375C68.0978 8.09375 67.0625 9.12909 67.0625 10.4062C67.0625 11.6834 68.0978 12.7188 69.375 12.7188Z" fill="white"/>
<path d="M69.375 24.2812C70.6522 24.2812 71.6875 23.2459 71.6875 21.9688C71.6875 20.6916 70.6522 19.6562 69.375 19.6562C68.0978 19.6562 67.0625 20.6916 67.0625 21.9688C67.0625 23.2459 68.0978 24.2812 69.375 24.2812Z" fill="white"/>
<path d="M69.375 35.8438C70.6522 35.8438 71.6875 34.8084 71.6875 33.5312C71.6875 32.2541 70.6522 31.2188 69.375 31.2188C68.0978 31.2188 67.0625 32.2541 67.0625 33.5312C67.0625 34.8084 68.0978 35.8438 69.375 35.8438Z" fill="white"/>
<path d="M69.375 47.4062C70.6522 47.4062 71.6875 46.3709 71.6875 45.0938C71.6875 43.8166 70.6522 42.7812 69.375 42.7812C68.0978 42.7812 67.0625 43.8166 67.0625 45.0938C67.0625 46.3709 68.0978 47.4062 69.375 47.4062Z" fill="white"/>
<path d="M69.375 58.9688C70.6522 58.9688 71.6875 57.9334 71.6875 56.6562C71.6875 55.3791 70.6522 54.3438 69.375 54.3438C68.0978 54.3438 67.0625 55.3791 67.0625 56.6562C67.0625 57.9334 68.0978 58.9688 69.375 58.9688Z" fill="white"/>
<path d="M69.375 70.5312C70.6522 70.5312 71.6875 69.4959 71.6875 68.2188C71.6875 66.9416 70.6522 65.9062 69.375 65.9062C68.0978 65.9062 67.0625 66.9416 67.0625 68.2188C67.0625 69.4959 68.0978 70.5312 69.375 70.5312Z" fill="white"/>
<path d="M40.6087 17.6825C39.7727 18.5185 39.3125 19.6308 39.3125 20.8125C39.3125 21.9942 39.7727 23.1065 40.6087 23.9425L41.9638 25.2976C43.2368 26.5695 43.9375 28.2622 43.9375 30.0625C43.9375 31.8628 43.2368 33.5555 41.9638 34.8274L40.6087 36.1825C39.7727 37.0185 39.3125 38.1308 39.3125 39.3125C39.3125 40.4942 39.7727 41.6065 40.6087 42.4425L41.9638 43.7976C43.2368 45.0695 43.9375 46.7622 43.9375 48.5625C43.9375 50.3628 43.2368 52.0555 41.9638 53.3274L40.6087 54.6825C39.7727 55.5185 39.3125 56.6308 39.3125 57.8125C39.3125 58.9942 39.7727 60.1065 40.6087 60.9425L43.2599 63.5938H48.0838L47.0675 62.5774C45.7944 61.3055 45.0938 59.6128 45.0938 57.8125C45.0938 56.0122 45.7944 54.3195 47.0675 53.0476L48.4226 51.6925C49.2586 50.8565 49.7188 49.7442 49.7188 48.5625C49.7188 47.3808 49.2586 46.2685 48.4226 45.4325L47.0675 44.0774C45.7944 42.8055 45.0938 41.1128 45.0938 39.3125C45.0938 37.5122 45.7944 35.8195 47.0675 34.5476L48.4226 33.1925C49.2586 32.3565 49.7188 31.2442 49.7188 30.0625C49.7188 28.8808 49.2586 27.7685 48.4226 26.9325L47.0675 25.5774C45.7944 24.3055 45.0938 22.6128 45.0938 20.8125C45.0938 19.0122 45.7944 17.3195 47.0675 16.0476L48.0838 15.0312H43.2599L40.6087 17.6825Z" fill="white"/>
<path d="M48.7024 54.6825C47.8664 55.5185 47.4062 56.6308 47.4062 57.8125C47.4062 58.9942 47.8664 60.1065 48.7024 60.9425L51.3537 63.5938H54.3438V15.0312H51.3537L48.7024 17.6825C47.8664 18.5185 47.4062 19.6308 47.4062 20.8125C47.4062 21.9942 47.8664 23.1065 48.7024 23.9425L50.0575 25.2976C51.3306 26.5695 52.0312 28.2622 52.0312 30.0625C52.0312 31.8628 51.3306 33.5555 50.0575 34.8274L48.7024 36.1825C47.8664 37.0185 47.4062 38.1308 47.4062 39.3125C47.4062 40.4942 47.8664 41.6065 48.7024 42.4425L50.0575 43.7976C51.3306 45.0695 52.0312 46.7622 52.0312 48.5625C52.0312 50.3628 51.3306 52.0555 50.0575 53.3274L48.7024 54.6825Z" fill="white"/>
<path d="M24.4212 17.6825C23.5852 18.5185 23.125 19.6308 23.125 20.8125C23.125 21.9942 23.5852 23.1065 24.4212 23.9425L25.7763 25.2976C27.0493 26.5695 27.75 28.2622 27.75 30.0625C27.75 31.8628 27.0493 33.5555 25.7763 34.8274L24.4212 36.1825C23.5852 37.0185 23.125 38.1308 23.125 39.3125C23.125 40.4942 23.5852 41.6065 24.4212 42.4425L25.7763 43.7976C27.0493 45.0695 27.75 46.7622 27.75 48.5625C27.75 50.3628 27.0493 52.0555 25.7763 53.3274L24.4212 54.6825C23.5852 55.5185 23.125 56.6308 23.125 57.8125C23.125 58.9942 23.5852 60.1065 24.4212 60.9425L27.0724 63.5938H31.8963L30.88 62.5774C29.6069 61.3055 28.9062 59.6128 28.9062 57.8125C28.9062 56.0122 29.6069 54.3195 30.88 53.0476L32.2351 51.6925C33.0711 50.8565 33.5312 49.7442 33.5312 48.5625C33.5312 47.3808 33.0711 46.2685 32.2351 45.4325L30.88 44.0774C29.6069 42.8055 28.9062 41.1128 28.9062 39.3125C28.9062 37.5122 29.6069 35.8195 30.88 34.5476L32.2351 33.1925C33.0711 32.3565 33.5312 31.2442 33.5312 30.0625C33.5312 28.8808 33.0711 27.7685 32.2351 26.9325L30.88 25.5774C29.6069 24.3055 28.9062 22.6128 28.9062 20.8125C28.9062 19.0122 29.6069 17.3195 30.88 16.0476L31.8963 15.0312H27.0724L24.4212 17.6825Z" fill="white"/>
<path d="M32.5149 17.6825C31.6789 18.5185 31.2188 19.6308 31.2188 20.8125C31.2188 21.9942 31.6789 23.1065 32.5149 23.9425L33.87 25.2976C35.1431 26.5695 35.8438 28.2622 35.8438 30.0625C35.8438 31.8628 35.1431 33.5555 33.87 34.8274L32.5149 36.1825C31.6789 37.0185 31.2188 38.1308 31.2188 39.3125C31.2188 40.4942 31.6789 41.6065 32.5149 42.4425L33.87 43.7976C35.1431 45.0695 35.8438 46.7622 35.8438 48.5625C35.8438 50.3628 35.1431 52.0555 33.87 53.3274L32.5149 54.6825C31.6789 55.5185 31.2188 56.6308 31.2188 57.8125C31.2188 58.9942 31.6789 60.1065 32.5149 60.9425L35.1662 63.5938H39.9901L38.9737 62.5774C37.7007 61.3055 37 59.6128 37 57.8125C37 56.0122 37.7007 54.3195 38.9737 53.0476L40.3288 51.6925C41.1648 50.8565 41.625 49.7442 41.625 48.5625C41.625 47.3808 41.1648 46.2685 40.3288 45.4325L38.9737 44.0774C37.7007 42.8055 37 41.1128 37 39.3125C37 37.5122 37.7007 35.8195 38.9737 34.5476L40.3288 33.1925C41.1648 32.3565 41.625 31.2442 41.625 30.0625C41.625 28.8808 41.1648 27.7685 40.3288 26.9325L38.9737 25.5774C37.7007 24.3055 37 22.6128 37 20.8125C37 19.0122 37.7007 17.3195 38.9737 16.0476L39.9901 15.0312H35.1662L32.5149 17.6825Z" fill="white"/>
<path d="M11.5625 54.3438C7.09938 54.3438 3.46875 57.9744 3.46875 62.4375C3.46875 66.9006 7.09938 70.5312 11.5625 70.5312C16.0256 70.5312 19.6562 66.9006 19.6562 62.4375C19.6562 57.9744 16.0256 54.3438 11.5625 54.3438ZM11.5625 68.2188C8.37472 68.2188 5.78125 65.6253 5.78125 62.4375C5.78125 59.2497 8.37472 56.6562 11.5625 56.6562C14.7503 56.6562 17.3438 59.2497 17.3438 62.4375C17.3438 65.6253 14.7503 68.2188 11.5625 68.2188Z" fill="white"/>
<path d="M21.9688 11.5625V12.7188H55.5C56.1383 12.7188 56.6563 13.2368 56.6563 13.875V64.75C56.6563 65.3882 56.1383 65.9062 55.5 65.9062H21.3617C20.7119 67.7366 19.5718 69.3334 18.0884 70.5312H61.2813V8.09375H21.3617C21.7479 9.18062 21.9688 10.345 21.9688 11.5625Z" fill="white"/>
<path d="M11.5625 52.0312C14.8301 52.0312 17.7473 53.5482 19.6562 55.9116V11.5625C19.6562 7.09938 16.0256 3.46875 11.5625 3.46875C7.09938 3.46875 3.46875 7.09938 3.46875 11.5625V55.9116C5.37772 53.5482 8.29494 52.0312 11.5625 52.0312Z" fill="white"/>
<path d="M11.5625 65.9062C13.4782 65.9062 15.0312 64.3532 15.0312 62.4375C15.0312 60.5218 13.4782 58.9688 11.5625 58.9688C9.64676 58.9688 8.09375 60.5218 8.09375 62.4375C8.09375 64.3532 9.64676 65.9062 11.5625 65.9062Z" fill="white"/>
<path d="M21.9688 17.0385C22.2069 16.687 22.4798 16.354 22.7862 16.0476L23.8026 15.0312H21.9688V17.0385Z" fill="white"/>
<path d="M21.9688 35.5384C22.2069 35.1869 22.4798 34.8539 22.7862 34.5475L24.1413 33.1924C24.9773 32.3564 25.4375 31.2441 25.4375 30.0624C25.4375 28.8807 24.9773 27.7684 24.1413 26.9325L22.7862 25.5773C22.4787 25.2698 22.2069 24.9379 21.9688 24.5864V35.5384Z" fill="white"/>
<path d="M21.9686 62.4374C21.9686 62.8282 21.9432 63.2133 21.9004 63.5937H23.8024L22.7861 62.5773C22.4785 62.2698 22.2068 61.9379 21.9686 61.5864V62.4374Z" fill="white"/>
<path d="M21.9688 54.0384C22.2069 53.6869 22.4798 53.3539 22.7862 53.0475L24.1413 51.6924C24.9773 50.8564 25.4375 49.7441 25.4375 48.5624C25.4375 47.3807 24.9773 46.2684 24.1413 45.4325L22.7862 44.0773C22.4787 43.7698 22.2069 43.4379 21.9688 43.0864V54.0384Z" fill="white"/>
<path d="M66.119 9.25H62.4375V11.5625H66.119C65.9895 11.1994 65.9062 10.8132 65.9062 10.4062C65.9062 9.99925 65.9895 9.61306 66.119 9.25Z" fill="white"/>
<path d="M66.119 20.8125H62.4375V23.125H66.119C65.9895 22.7619 65.9062 22.3757 65.9062 21.9688C65.9062 21.5618 65.9895 21.1756 66.119 20.8125Z" fill="white"/>
<path d="M66.119 32.375H62.4375V34.6875H66.119C65.9895 34.3244 65.9062 33.9382 65.9062 33.5312C65.9062 33.1243 65.9895 32.7381 66.119 32.375Z" fill="white"/>
<path d="M66.119 43.9375H62.4375V46.25H66.119C65.9895 45.8869 65.9062 45.5007 65.9062 45.0938C65.9062 44.6868 65.9895 44.3006 66.119 43.9375Z" fill="white"/>
<path d="M66.119 55.5H62.4375V57.8125H66.119C65.9895 57.4494 65.9062 57.0632 65.9062 56.6562C65.9062 56.2493 65.9895 55.8631 66.119 55.5Z" fill="white"/>
<path d="M66.119 67.0625H62.4375V69.375H66.119C65.9895 69.0119 65.9062 68.6257 65.9062 68.2188C65.9062 67.8118 65.9895 67.4256 66.119 67.0625Z" fill="white"/>
</svg>
