<svg width="315" height="306" viewBox="0 0 315 306" fill="none" xmlns="http://www.w3.org/2000/svg">
<g filter="url(#filter0_d_373_569)">
<path d="M93.0604 84H35.9329L10 130.996L35.9329 181H96.8188L122 130.996L93.0604 84Z" fill="#FEC901"/>
</g>
<g filter="url(#filter1_d_373_569)">
<path d="M185.06 14H127.933L102 60.9961L127.933 111H188.819L214 60.9961L185.06 14Z" fill="#FEC901"/>
</g>
<g filter="url(#filter2_d_373_569)">
<path d="M243.265 131H152.983L112 205.128L152.983 284H249.205L289 205.128L243.265 131Z" fill="#FEC901"/>
</g>
<g filter="url(#filter3_i_373_569)">
<path d="M230.96 226.052C227.756 226.052 225.164 225.101 223.183 223.197C221.202 221.28 220.212 218.791 220.212 215.729V215.189C220.212 213.054 220.604 211.169 221.389 209.535C222.186 207.902 223.344 206.641 224.862 205.754C226.38 204.853 228.181 204.403 230.265 204.403C233.198 204.403 235.513 205.316 237.211 207.143C238.909 208.957 239.758 211.491 239.758 214.745V217.273H226.83C227.062 218.444 227.57 219.363 228.355 220.032C229.139 220.701 230.156 221.036 231.403 221.036C233.462 221.036 235.069 220.315 236.227 218.875L239.199 222.386C238.388 223.505 237.237 224.399 235.745 225.068C234.266 225.724 232.67 226.052 230.96 226.052ZM230.226 209.42C228.322 209.42 227.19 210.68 226.83 213.202H233.391V212.7C233.417 211.658 233.153 210.854 232.6 210.288C232.047 209.709 231.255 209.42 230.226 209.42Z" fill="#FEC901"/>
<path d="M252.493 226.052C249.29 226.052 246.698 225.101 244.717 223.197C242.736 221.28 241.746 218.791 241.746 215.729V215.189C241.746 213.054 242.138 211.169 242.923 209.535C243.72 207.902 244.878 206.641 246.396 205.754C247.914 204.853 249.715 204.403 251.799 204.403C254.732 204.403 257.047 205.316 258.745 207.143C260.443 208.957 261.292 211.491 261.292 214.745V217.273H248.364C248.596 218.444 249.104 219.363 249.888 220.032C250.673 220.701 251.689 221.036 252.937 221.036C254.995 221.036 256.603 220.315 257.761 218.875L260.733 222.386C259.922 223.505 258.771 224.399 257.279 225.068C255.799 225.724 254.204 226.052 252.493 226.052ZM251.76 209.42C249.856 209.42 248.724 210.68 248.364 213.202H254.925V212.7C254.95 211.658 254.687 210.854 254.134 210.288C253.58 209.709 252.789 209.42 251.76 209.42Z" fill="#FEC901"/>
<path d="M195.151 230.028C198.856 231.262 203.281 235.482 205.03 237.437C206.265 231.571 201.943 231.571 200.091 228.484C197.621 223.544 201.737 222.515 204.104 222.618C202.972 221.28 199.905 218.975 196.695 220.457C190.829 223.235 192.681 228.793 195.151 230.028Z" fill="#FEC901"/>
<path d="M208.747 176.369C186.625 172.806 178.868 195.917 177.754 207.918C178.868 196.598 194.457 179.71 204.293 183.607C214.5 188.784 191.673 202.165 192.23 202.908C210.417 207.547 209.86 224.25 209.86 226.291C223.223 214.599 208.747 203.65 198.169 201.98C204.479 201.98 223.779 180.823 208.747 176.369Z" fill="#FEC901"/>
<path fill-rule="evenodd" clip-rule="evenodd" d="M166.631 190.664C163.236 186.211 153.897 178.448 142.667 181.866C143.506 182.538 145.532 182.57 147.951 182.609C149.98 182.641 152.286 182.678 154.399 183.101C158.569 183.935 163.575 187.668 165.164 191.042C164.926 191.131 164.7 191.23 164.489 191.334C160.26 187.355 150.315 181.488 140 186.193C140.959 186.771 142.578 186.59 144.955 186.324H144.955H144.955C146.775 186.121 149.04 185.868 151.792 185.868C155.931 185.868 161.2 189.003 163.342 192.064C160.874 194.749 157.866 202.253 165.513 210.886C165.405 210.762 165.605 210.684 165.957 210.547C166.791 210.223 168.475 209.57 168.909 207.182C168.958 207.478 169.024 207.759 169.087 208.032C169.419 209.461 169.699 210.664 167.365 212.739C167.468 212.945 167.797 213.418 168.291 213.665C168.291 213.974 168.909 214.9 169.526 213.356C169.608 213.151 169.821 212.739 170.117 212.166L170.117 212.166C172.048 208.426 177.514 197.84 173.231 193.289C170.951 190.866 168.561 190.383 166.631 190.664ZM203.795 238.981C205.03 239.228 205.339 239.084 205.339 238.981C203.131 234.86 199.591 233.896 196.222 232.979C192.524 231.973 189.034 231.022 187.741 226.014C185.765 218.358 194.739 216.032 199.473 215.826C191.57 209.651 184.242 216.752 181.567 221.074C176.936 209.343 187.433 209.034 190.211 209.034C187.433 207.182 180.332 205.947 175.083 210.886C169.835 215.826 173.54 230.028 183.728 232.806C202.347 237.216 203.081 238.321 203.361 238.743C203.434 238.853 203.477 238.917 203.795 238.981ZM167.036 198.992C166.591 201.207 165.033 202.763 163.556 202.466C162.079 202.169 161.243 200.132 161.688 197.917C162.134 195.702 163.692 194.147 165.169 194.444C166.645 194.741 167.482 196.777 167.036 198.992Z" fill="#FEC901"/>
</g>
<defs>
<filter id="filter0_d_373_569" x="0" y="70" width="148" height="133" filterUnits="userSpaceOnUse" color-interpolation-filters="sRGB">
<feFlood flood-opacity="0" result="BackgroundImageFix"/>
<feColorMatrix in="SourceAlpha" type="matrix" values="0 0 0 0 0 0 0 0 0 0 0 0 0 0 0 0 0 0 127 0" result="hardAlpha"/>
<feOffset dx="8" dy="4"/>
<feGaussianBlur stdDeviation="9"/>
<feColorMatrix type="matrix" values="0 0 0 0 0.171129 0 0 0 0 0.171129 0 0 0 0 0.171129 0 0 0 0.15 0"/>
<feBlend mode="normal" in2="BackgroundImageFix" result="effect1_dropShadow_373_569"/>
<feBlend mode="normal" in="SourceGraphic" in2="effect1_dropShadow_373_569" result="shape"/>
</filter>
<filter id="filter1_d_373_569" x="92" y="0" width="148" height="133" filterUnits="userSpaceOnUse" color-interpolation-filters="sRGB">
<feFlood flood-opacity="0" result="BackgroundImageFix"/>
<feColorMatrix in="SourceAlpha" type="matrix" values="0 0 0 0 0 0 0 0 0 0 0 0 0 0 0 0 0 0 127 0" result="hardAlpha"/>
<feOffset dx="8" dy="4"/>
<feGaussianBlur stdDeviation="9"/>
<feColorMatrix type="matrix" values="0 0 0 0 0.171129 0 0 0 0 0.171129 0 0 0 0 0.171129 0 0 0 0.15 0"/>
<feBlend mode="normal" in2="BackgroundImageFix" result="effect1_dropShadow_373_569"/>
<feBlend mode="normal" in="SourceGraphic" in2="effect1_dropShadow_373_569" result="shape"/>
</filter>
<filter id="filter2_d_373_569" x="102" y="117" width="213" height="189" filterUnits="userSpaceOnUse" color-interpolation-filters="sRGB">
<feFlood flood-opacity="0" result="BackgroundImageFix"/>
<feColorMatrix in="SourceAlpha" type="matrix" values="0 0 0 0 0 0 0 0 0 0 0 0 0 0 0 0 0 0 127 0" result="hardAlpha"/>
<feOffset dx="8" dy="4"/>
<feGaussianBlur stdDeviation="9"/>
<feColorMatrix type="matrix" values="0 0 0 0 0.171129 0 0 0 0 0.171129 0 0 0 0 0.171129 0 0 0 0.15 0"/>
<feBlend mode="normal" in2="BackgroundImageFix" result="effect1_dropShadow_373_569"/>
<feBlend mode="normal" in="SourceGraphic" in2="effect1_dropShadow_373_569" result="shape"/>
</filter>
<filter id="filter3_i_373_569" x="140" y="176" width="123.292" height="67.1172" filterUnits="userSpaceOnUse" color-interpolation-filters="sRGB">
<feFlood flood-opacity="0" result="BackgroundImageFix"/>
<feBlend mode="normal" in="SourceGraphic" in2="BackgroundImageFix" result="shape"/>
<feColorMatrix in="SourceAlpha" type="matrix" values="0 0 0 0 0 0 0 0 0 0 0 0 0 0 0 0 0 0 127 0" result="hardAlpha"/>
<feOffset dx="2" dy="4"/>
<feGaussianBlur stdDeviation="3"/>
<feComposite in2="hardAlpha" operator="arithmetic" k2="-1" k3="1"/>
<feColorMatrix type="matrix" values="0 0 0 0 0 0 0 0 0 0 0 0 0 0 0 0 0 0 0.15 0"/>
<feBlend mode="normal" in2="shape" result="effect1_innerShadow_373_569"/>
</filter>
</defs>
</svg>
