<svg width="155" height="69" viewBox="0 0 155 69" fill="none" xmlns="http://www.w3.org/2000/svg">
<path d="M4.44046 66.3643C4.73024 66.3643 4.98343 66.2765 5.20003 66.1008C5.41663 65.9252 5.53664 65.7057 5.56005 65.4423H6.3284C6.31376 65.7145 6.2201 65.9735 6.0474 66.2194C5.87471 66.4653 5.64347 66.6614 5.3537 66.8077C5.06685 66.9541 4.76244 67.0272 4.44046 67.0272C3.79359 67.0272 3.27843 66.8121 2.89499 66.3818C2.51448 65.9486 2.32422 65.3574 2.32422 64.6081V64.472C2.32422 64.0095 2.4091 63.5982 2.57887 63.2382C2.74864 62.8782 2.99158 62.5986 3.3077 62.3996C3.62675 62.2006 4.00287 62.1011 4.43607 62.1011C4.96879 62.1011 5.41077 62.2606 5.76202 62.5796C6.11619 62.8987 6.30498 63.3128 6.3284 63.8221H5.56005C5.53664 63.5148 5.41956 63.2631 5.20881 63.067C5.00099 62.8679 4.74341 62.7684 4.43607 62.7684C4.02336 62.7684 3.70285 62.9177 3.47454 63.2163C3.24916 63.5119 3.13647 63.9407 3.13647 64.5027V64.6564C3.13647 65.2037 3.24916 65.6252 3.47454 65.9208C3.69992 66.2165 4.0219 66.3643 4.44046 66.3643Z" fill="#FEC901"/>
<path d="M8.57372 66.9394H7.76147V60.1956H8.57372V66.9394Z" fill="#FEC901"/>
<path d="M12.2987 67.0272C11.6547 67.0272 11.1308 66.8165 10.7268 66.395C10.3229 65.9706 10.121 65.4042 10.121 64.6959V64.5466C10.121 64.0753 10.2102 63.6553 10.3888 63.2865C10.5703 62.9148 10.822 62.625 11.144 62.4172C11.4689 62.2064 11.8201 62.1011 12.1977 62.1011C12.8153 62.1011 13.2953 62.3045 13.6378 62.7113C13.9802 63.1182 14.1515 63.7007 14.1515 64.4588V64.7969H10.9332C10.9449 65.2652 11.081 65.6442 11.3415 65.934C11.605 66.2209 11.9386 66.3643 12.3426 66.3643C12.6294 66.3643 12.8724 66.3057 13.0714 66.1887C13.2704 66.0716 13.4446 65.9164 13.5939 65.7233L14.09 66.1096C13.6919 66.7214 13.0948 67.0272 12.2987 67.0272ZM12.1977 62.7684C11.8699 62.7684 11.5947 62.8884 11.3723 63.1284C11.1498 63.3655 11.0122 63.6992 10.9595 64.1295H13.3392V64.068C13.3158 63.6553 13.2046 63.3363 13.0055 63.1109C12.8065 62.8826 12.5372 62.7684 12.1977 62.7684Z" fill="#FEC901"/>
<path d="M18.4779 66.9394C18.4311 66.8458 18.393 66.6789 18.3638 66.4389C17.9862 66.8311 17.5354 67.0272 17.0115 67.0272C16.5432 67.0272 16.1583 66.8955 15.8568 66.6321C15.5582 66.3657 15.4089 66.0291 15.4089 65.6223C15.4089 65.1276 15.5963 64.7442 15.9709 64.472C16.3485 64.1968 16.8783 64.0592 17.5603 64.0592H18.3506V63.686C18.3506 63.4021 18.2657 63.1767 18.0959 63.0099C17.9262 62.8401 17.6759 62.7552 17.3452 62.7552C17.0554 62.7552 16.8124 62.8284 16.6163 62.9748C16.4202 63.1211 16.3222 63.2982 16.3222 63.506H15.5055C15.5055 63.2689 15.5889 63.0406 15.7558 62.8211C15.9256 62.5986 16.1539 62.423 16.4407 62.2942C16.7305 62.1654 17.0481 62.1011 17.3935 62.1011C17.9408 62.1011 18.3696 62.2386 18.6799 62.5138C18.9902 62.786 19.1511 63.1621 19.1628 63.6421V65.8286C19.1628 66.2648 19.2185 66.6116 19.3297 66.8692V66.9394H18.4779ZM17.13 66.3204C17.3847 66.3204 17.6262 66.2545 17.8545 66.1228C18.0828 65.9911 18.2482 65.8198 18.3506 65.6091V64.6344H17.714C16.7188 64.6344 16.2212 64.9256 16.2212 65.5081C16.2212 65.7628 16.3061 65.9618 16.4758 66.1052C16.6456 66.2487 16.8637 66.3204 17.13 66.3204Z" fill="#FEC901"/>
<path d="M21.654 62.1889L21.6804 62.786C22.0433 62.3294 22.5175 62.1011 23.1029 62.1011C24.1069 62.1011 24.6133 62.6674 24.6221 63.8002V66.9394H23.8098V63.7958C23.8069 63.4533 23.7278 63.2002 23.5727 63.0362C23.4205 62.8723 23.182 62.7904 22.8571 62.7904C22.5936 62.7904 22.3624 62.8606 22.1633 63.0011C21.9643 63.1416 21.8092 63.326 21.698 63.5543V66.9394H20.8857V62.1889H21.654Z" fill="#FEC901"/>
<path d="M27.1791 66.9394H26.3669V62.1889H27.1791V66.9394ZM26.301 60.9288C26.301 60.7971 26.3405 60.6858 26.4195 60.5951C26.5015 60.5044 26.6215 60.459 26.7796 60.459C26.9376 60.459 27.0576 60.5044 27.1396 60.5951C27.2216 60.6858 27.2625 60.7971 27.2625 60.9288C27.2625 61.0605 27.2216 61.1703 27.1396 61.2581C27.0576 61.3459 26.9376 61.3898 26.7796 61.3898C26.6215 61.3898 26.5015 61.3459 26.4195 61.2581C26.3405 61.1703 26.301 61.0605 26.301 60.9288Z" fill="#FEC901"/>
<path d="M29.701 62.1889L29.7274 62.786C30.0903 62.3294 30.5645 62.1011 31.1499 62.1011C32.1539 62.1011 32.6603 62.6674 32.6691 63.8002V66.9394H31.8568V63.7958C31.8539 63.4533 31.7748 63.2002 31.6197 63.0362C31.4675 62.8723 31.229 62.7904 30.9041 62.7904C30.6406 62.7904 30.4094 62.8606 30.2103 63.0011C30.0113 63.1416 29.8562 63.326 29.7449 63.5543V66.9394H28.9327V62.1889H29.701Z" fill="#FEC901"/>
<path d="M34.1504 64.5246C34.1504 63.7841 34.3217 63.1958 34.6641 62.7596C35.0066 62.3206 35.4603 62.1011 36.0252 62.1011C36.6047 62.1011 37.057 62.3059 37.3819 62.7157L37.4214 62.1889H38.1634V66.8253C38.1634 67.44 37.9804 67.9244 37.6146 68.2786C37.2516 68.6327 36.7628 68.8098 36.1481 68.8098C35.8057 68.8098 35.4705 68.7366 35.1427 68.5903C34.8149 68.4439 34.5646 68.2434 34.3919 67.9888L34.8134 67.5014C35.1617 67.9317 35.5876 68.1468 36.091 68.1468C36.4862 68.1468 36.7935 68.0356 37.0131 67.8132C37.2355 67.5907 37.3467 67.2775 37.3467 66.8736V66.4653C37.0218 66.8399 36.5784 67.0272 36.0164 67.0272C35.4603 67.0272 35.0095 66.8033 34.6641 66.3555C34.3217 65.9077 34.1504 65.2974 34.1504 64.5246ZM34.9671 64.6168C34.9671 65.1525 35.0768 65.574 35.2964 65.8813C35.5159 66.1857 35.8232 66.3379 36.2184 66.3379C36.7306 66.3379 37.1067 66.1052 37.3467 65.6398V63.4709C37.0979 63.0172 36.7248 62.7904 36.2272 62.7904C35.832 62.7904 35.5232 62.944 35.3007 63.2514C35.0783 63.5587 34.9671 64.0139 34.9671 64.6168Z" fill="#FEC901"/>
<path d="M44.4278 66.3643C44.7176 66.3643 44.9708 66.2765 45.1874 66.1008C45.404 65.9252 45.524 65.7057 45.5474 65.4423H46.3158C46.3011 65.7145 46.2075 65.9735 46.0348 66.2194C45.8621 66.4653 45.6308 66.6614 45.3411 66.8077C45.0542 66.9541 44.7498 67.0272 44.4278 67.0272C43.7809 67.0272 43.2658 66.8121 42.8823 66.3818C42.5018 65.9486 42.3116 65.3574 42.3116 64.6081V64.472C42.3116 64.0095 42.3965 63.5982 42.5662 63.2382C42.736 62.8782 42.9789 62.5986 43.2951 62.3996C43.6141 62.2006 43.9902 62.1011 44.4234 62.1011C44.9561 62.1011 45.3981 62.2606 45.7494 62.5796C46.1035 62.8987 46.2923 63.3128 46.3158 63.8221H45.5474C45.524 63.5148 45.4069 63.2631 45.1962 63.067C44.9883 62.8679 44.7308 62.7684 44.4234 62.7684C44.0107 62.7684 43.6902 62.9177 43.4619 63.2163C43.2365 63.5119 43.1238 63.9407 43.1238 64.5027V64.6564C43.1238 65.2037 43.2365 65.6252 43.4619 65.9208C43.6873 66.2165 44.0093 66.3643 44.4278 66.3643Z" fill="#FEC901"/>
<path d="M47.4634 64.5202C47.4634 64.0548 47.5542 63.6363 47.7357 63.2645C47.9201 62.8928 48.1747 62.606 48.4996 62.404C48.8274 62.202 49.2006 62.1011 49.6192 62.1011C50.2661 62.1011 50.7886 62.325 51.1866 62.7728C51.5876 63.2206 51.7881 63.8163 51.7881 64.5598V64.6168C51.7881 65.0793 51.6989 65.4949 51.5203 65.8638C51.3447 66.2296 51.0915 66.515 50.7607 66.7199C50.4329 66.9248 50.0553 67.0272 49.628 67.0272C48.984 67.0272 48.4616 66.8033 48.0606 66.3555C47.6625 65.9077 47.4634 65.3149 47.4634 64.5773V64.5202ZM48.2801 64.6168C48.2801 65.1437 48.4016 65.5667 48.6445 65.8857C48.8904 66.2048 49.2182 66.3643 49.628 66.3643C50.0407 66.3643 50.3685 66.2033 50.6115 65.8813C50.8544 65.5564 50.9759 65.1027 50.9759 64.5202C50.9759 63.9992 50.8515 63.5777 50.6027 63.2558C50.3568 62.9309 50.029 62.7684 49.6192 62.7684C49.2182 62.7684 48.8948 62.9279 48.6489 63.247C48.403 63.566 48.2801 64.0227 48.2801 64.6168Z" fill="#FEC901"/>
<path d="M54.0203 62.1889L54.0422 62.7157C54.3906 62.3059 54.8603 62.1011 55.4516 62.1011C56.116 62.1011 56.5683 62.3557 56.8083 62.865C56.9663 62.6367 57.1712 62.4523 57.423 62.3118C57.6776 62.1713 57.9776 62.1011 58.323 62.1011C59.365 62.1011 59.8948 62.6528 59.9124 63.7563V66.9394H59.1002V63.8046C59.1002 63.4651 59.0226 63.2119 58.8675 63.045C58.7123 62.8753 58.4518 62.7904 58.0859 62.7904C57.7845 62.7904 57.5342 62.8811 57.3352 63.0626C57.1361 63.2411 57.0205 63.4826 56.9883 63.787V66.9394H56.1717V63.8265C56.1717 63.1358 55.8336 62.7904 55.1574 62.7904C54.6247 62.7904 54.2603 63.0172 54.0642 63.4709V66.9394H53.2519V62.1889H54.0203Z" fill="#FEC901"/>
<path d="M65.6043 64.6168C65.6043 65.3398 65.4389 65.9223 65.1082 66.3643C64.7774 66.8063 64.3296 67.0272 63.7647 67.0272C63.188 67.0272 62.7344 66.8443 62.4036 66.4784V68.7659H61.5914V62.1889H62.3334L62.3729 62.7157C62.7036 62.3059 63.1632 62.1011 63.7515 62.1011C64.3223 62.1011 64.773 62.3162 65.1038 62.7465C65.4375 63.1767 65.6043 63.7753 65.6043 64.5422V64.6168ZM64.7921 64.5246C64.7921 63.989 64.6779 63.566 64.4496 63.2558C64.2213 62.9455 63.9081 62.7904 63.51 62.7904C63.0183 62.7904 62.6495 63.0084 62.4036 63.4446V65.7145C62.6465 66.1477 63.0183 66.3643 63.5188 66.3643C63.9081 66.3643 64.2169 66.2106 64.4452 65.9033C64.6764 65.593 64.7921 65.1335 64.7921 64.5246Z" fill="#FEC901"/>
<path d="M70.023 66.9394C69.9761 66.8458 69.9381 66.6789 69.9088 66.4389C69.5312 66.8311 69.0805 67.0272 68.5565 67.0272C68.0882 67.0272 67.7033 66.8955 67.4018 66.6321C67.1032 66.3657 66.954 66.0291 66.954 65.6223C66.954 65.1276 67.1413 64.7442 67.516 64.472C67.8935 64.1968 68.4233 64.0592 69.1053 64.0592H69.8956V63.686C69.8956 63.4021 69.8107 63.1767 69.641 63.0099C69.4712 62.8401 69.2209 62.7552 68.8902 62.7552C68.6004 62.7552 68.3575 62.8284 68.1614 62.9748C67.9652 63.1211 67.8672 63.2982 67.8672 63.506H67.0506C67.0506 63.2689 67.134 63.0406 67.3008 62.8211C67.4706 62.5986 67.6989 62.423 67.9857 62.2942C68.2755 62.1654 68.5931 62.1011 68.9385 62.1011C69.4858 62.1011 69.9147 62.2386 70.2249 62.5138C70.5352 62.786 70.6962 63.1621 70.7079 63.6421V65.8286C70.7079 66.2648 70.7635 66.6116 70.8747 66.8692V66.9394H70.023ZM68.6751 66.3204C68.9297 66.3204 69.1712 66.2545 69.3995 66.1228C69.6278 65.9911 69.7932 65.8198 69.8956 65.6091V64.6344H69.259C68.2638 64.6344 67.7662 64.9256 67.7662 65.5081C67.7662 65.7628 67.8511 65.9618 68.0209 66.1052C68.1906 66.2487 68.4087 66.3204 68.6751 66.3204Z" fill="#FEC901"/>
<path d="M73.1991 62.1889L73.2254 62.786C73.5884 62.3294 74.0626 62.1011 74.648 62.1011C75.6519 62.1011 76.1583 62.6674 76.1671 63.8002V66.9394H75.3548V63.7958C75.3519 63.4533 75.2729 63.2002 75.1178 63.0362C74.9655 62.8723 74.727 62.7904 74.4021 62.7904C74.1387 62.7904 73.9074 62.8606 73.7084 63.0011C73.5093 63.1416 73.3542 63.326 73.243 63.5543V66.9394H72.4307V62.1889H73.1991Z" fill="#FEC901"/>
<path d="M79.3959 65.7496L80.5023 62.1889H81.3716L79.4618 67.6727C79.1661 68.463 78.6963 68.8581 78.0524 68.8581L77.8987 68.8449L77.5958 68.7879V68.1293L77.8153 68.1468C78.0904 68.1468 78.3041 68.0912 78.4563 67.98C78.6115 67.8688 78.7388 67.6653 78.8383 67.3697L79.0183 66.8868L77.3236 62.1889H78.2104L79.3959 65.7496Z" fill="#FEC901"/>
<path d="M19.0296 47.254C18.9568 48.8359 18.5301 50.2357 17.7495 51.4533C16.969 52.6606 15.871 53.5972 14.4556 54.2633C13.0507 54.9294 11.4427 55.2624 9.63189 55.2624C6.64501 55.2624 4.29298 54.2893 2.57579 52.3432C0.858596 50.397 0 47.6495 0 44.1006V42.9767C0 40.7495 0.385067 38.8034 1.1552 37.1382C1.93574 35.4626 3.05452 34.1721 4.51153 33.2667C5.96854 32.3509 7.65451 31.893 9.56944 31.893C12.3274 31.893 14.5441 32.6215 16.2197 34.0785C17.8952 35.5251 18.8475 37.5233 19.0764 40.073H13.6126C13.571 38.6889 13.2224 37.695 12.5667 37.0914C11.9111 36.4878 10.912 36.1859 9.56944 36.1859C8.2061 36.1859 7.207 36.6959 6.57216 37.7158C5.93732 38.7357 5.60429 40.3644 5.57307 42.602V44.2099C5.57307 46.6348 5.87488 48.3676 6.4785 49.4083C7.09252 50.449 8.14365 50.9694 9.63189 50.9694C10.8912 50.9694 11.8538 50.6728 12.5199 50.0796C13.186 49.4864 13.5398 48.5445 13.5814 47.254H19.0296Z" fill="white"/>
<path d="M26.9287 54.9502H21.6522V30.9719H26.9287V54.9502Z" fill="white"/>
<path d="M38.3558 55.2624C35.7644 55.2624 33.6674 54.4923 32.0647 52.952C30.4619 51.4013 29.6606 49.3875 29.6606 46.9106V46.4735C29.6606 44.7459 29.978 43.2212 30.6129 41.8995C31.2581 40.5778 32.1947 39.5579 33.4228 38.8398C34.6509 38.1113 36.1079 37.747 37.7938 37.747C40.1667 37.747 42.04 38.4859 43.4137 39.9638C44.7875 41.4312 45.4744 43.4814 45.4744 46.1144V48.1595H35.0151C35.2024 49.1065 35.6135 49.8506 36.2484 50.3918C36.8832 50.933 37.7054 51.2036 38.7149 51.2036C40.38 51.2036 41.6809 50.6208 42.6176 49.4552L45.0217 52.2963C44.366 53.2018 43.4346 53.9251 42.2273 54.4662C41.0305 54.997 39.74 55.2624 38.3558 55.2624ZM37.7626 41.8058C36.2223 41.8058 35.3065 42.8258 35.0151 44.8656H40.3228V44.4597C40.3436 43.6167 40.1303 42.9663 39.6827 42.5083C39.2352 42.04 38.5952 41.8058 37.7626 41.8058Z" fill="white"/>
<path d="M57.1201 54.9502C56.9327 54.6067 56.7662 54.102 56.6205 53.4359C55.6526 54.6536 54.2997 55.2624 52.5617 55.2624C50.9694 55.2624 49.6164 54.7837 48.5029 53.8262C47.3893 52.8583 46.8325 51.6459 46.8325 50.1889C46.8325 48.3572 47.509 46.973 48.8619 46.0364C50.2149 45.0997 52.1818 44.6314 54.7628 44.6314H56.3863V43.7416C56.3863 42.1909 55.7151 41.4156 54.3725 41.4156C53.1237 41.4156 52.4992 42.0296 52.4992 43.2577H47.2384C47.2384 41.6237 47.9305 40.2968 49.3146 39.2769C50.7092 38.257 52.4836 37.747 54.6379 37.747C56.7922 37.747 58.4938 38.2726 59.7427 39.3237C60.9915 40.3749 61.6316 41.8163 61.6628 43.6479V51.1255C61.6836 52.6762 61.923 53.8626 62.3809 54.6848V54.9502H57.1201ZM53.8262 51.5158C54.4818 51.5158 55.023 51.3753 55.4497 51.0943C55.8868 50.8133 56.199 50.4959 56.3863 50.142V47.4414H54.8565C53.0248 47.4414 52.109 48.2635 52.109 49.9079C52.109 50.3866 52.2703 50.7769 52.5929 51.0787C52.9155 51.3701 53.3266 51.5158 53.8262 51.5158Z" fill="white"/>
<path d="M69.4214 38.0592L69.5931 40.0418C70.7587 38.512 72.3666 37.747 74.4169 37.747C76.1757 37.747 77.487 38.2726 78.3508 39.3237C79.225 40.3749 79.6777 41.9567 79.7089 44.0694V54.9502H74.4325V44.288C74.4325 43.4346 74.2607 42.8101 73.9173 42.4147C73.5739 42.0088 72.9494 41.8058 72.044 41.8058C71.0137 41.8058 70.2488 42.2117 69.7492 43.0235V54.9502H64.4884V38.0592H69.4214Z" fill="white"/>
<path d="M130.46 40.4946C127.868 40.4946 125.771 39.7245 124.169 38.1842C122.566 36.6335 121.765 34.6197 121.765 32.1428V31.7057C121.765 29.9781 122.082 28.4534 122.717 27.1317C123.362 25.81 124.299 24.7901 125.527 24.072C126.755 23.3435 128.212 22.9792 129.898 22.9792C132.271 22.9792 134.144 23.7182 135.518 25.196C136.892 26.6634 137.578 28.7136 137.578 31.3467V33.3917H127.119C127.306 34.3387 127.718 35.0829 128.352 35.624C128.987 36.1652 129.809 36.4358 130.819 36.4358C132.484 36.4358 133.785 35.853 134.722 34.6874L137.126 37.5285C136.47 38.434 135.539 39.1573 134.331 39.6985C133.135 40.2292 131.844 40.4946 130.46 40.4946ZM129.867 27.0381C128.326 27.0381 127.411 28.058 127.119 30.0978H132.427V29.6919C132.448 28.8489 132.234 28.1985 131.787 27.7406C131.339 27.2722 130.699 27.0381 129.867 27.0381Z" fill="#FEC901"/>
<path d="M147.882 40.4946C145.29 40.4946 143.193 39.7245 141.59 38.1842C139.988 36.6335 139.186 34.6197 139.186 32.1428V31.7057C139.186 29.9781 139.504 28.4534 140.139 27.1317C140.784 25.81 141.721 24.7901 142.949 24.072C144.177 23.3435 145.634 22.9792 147.32 22.9792C149.692 22.9792 151.566 23.7182 152.939 25.196C154.313 26.6634 155 28.7136 155 31.3467V33.3917H144.541C144.728 34.3387 145.139 35.0829 145.774 35.624C146.409 36.1652 147.231 36.4358 148.241 36.4358C149.906 36.4358 151.207 35.853 152.143 34.6874L154.547 37.5285C153.892 38.434 152.96 39.1573 151.753 39.6985C150.556 40.2292 149.266 40.4946 147.882 40.4946ZM147.288 27.0381C145.748 27.0381 144.832 28.058 144.541 30.0978H149.849V29.6919C149.869 28.8489 149.656 28.1985 149.208 27.7406C148.761 27.2722 148.121 27.0381 147.288 27.0381Z" fill="#FEC901"/>
<path d="M101.489 43.7104C104.487 44.7095 108.067 48.1231 109.482 49.705C110.481 44.9593 106.984 44.9593 105.486 42.4615C103.488 38.4652 106.818 37.6326 108.733 37.7158C107.817 36.6335 105.336 34.7685 102.738 35.9674C97.9925 38.2154 99.4912 42.7113 101.489 43.7104Z" fill="white"/>
<path d="M112.489 0.298636C94.592 -2.58414 88.3159 16.1139 87.415 25.8232C88.3159 16.6644 100.928 3.00124 108.886 6.15428C117.144 10.3424 98.6759 21.1687 99.1263 21.7693C113.841 25.5229 113.39 39.036 113.39 40.6876C124.2 31.2284 112.489 22.3699 103.931 21.0186C109.036 21.0186 124.651 3.90211 112.489 0.298636Z" fill="#FEC901"/>
<path fill-rule="evenodd" clip-rule="evenodd" d="M78.4157 11.8638C75.6694 8.2609 68.1132 1.98054 59.0278 4.74566C59.7069 5.28893 61.3461 5.31523 63.3028 5.34662C64.9446 5.37296 66.8098 5.40289 68.5192 5.74475C71.8931 6.41954 75.9436 9.43994 77.2291 12.1695C77.036 12.2416 76.8535 12.3215 76.6829 12.406C73.2615 9.18638 65.2156 4.44 56.8701 8.24627C57.6459 8.7137 58.9559 8.56728 60.8788 8.35237H60.8788C62.3515 8.18778 64.1835 7.98302 66.4103 7.98302C69.7588 7.98302 74.0221 10.5197 75.755 12.9964C73.7583 15.1682 71.3245 21.2395 77.511 28.2244C77.4234 28.1234 77.5858 28.0603 77.8706 27.9498C78.5454 27.6878 79.9072 27.1592 80.2585 25.2271C80.2985 25.467 80.3513 25.6942 80.4026 25.9146L80.4026 25.9147C80.6714 27.0713 80.8977 28.0447 79.0097 29.723C79.0929 29.8895 79.3594 30.2725 79.759 30.4723C79.759 30.7221 80.2585 31.4714 80.7581 30.2225C80.8245 30.0566 80.9966 29.7231 81.236 29.2596L81.236 29.2595C82.7982 26.2342 87.2207 17.6692 83.7554 13.9873C81.9107 12.0272 79.9772 11.6361 78.4157 11.8638ZM108.483 50.9537C109.482 51.1535 109.732 51.037 109.732 50.9537C107.946 47.6199 105.081 46.8401 102.356 46.0983C99.3644 45.2839 96.5404 44.5152 95.4947 40.4633C93.8961 34.2689 101.156 32.3872 104.986 32.2207C98.5919 27.2253 92.6639 32.9701 90.4992 36.4669C86.7526 26.9755 95.2449 26.7257 97.4929 26.7257C95.2449 25.2271 89.5001 24.228 85.254 28.2243C81.0078 32.2207 84.0051 43.7103 92.2476 45.9583C107.311 49.5259 107.905 50.4198 108.132 50.7616C108.191 50.8506 108.225 50.9021 108.483 50.9537ZM78.7434 18.6017C78.3832 20.3938 77.1225 21.652 75.9277 21.4118C74.733 21.1716 74.0564 19.5241 74.4167 17.7319C74.777 15.9397 76.0376 14.6815 77.2324 14.9217C78.4272 15.1619 79.1037 16.8095 78.7434 18.6017Z" fill="white"/>
</svg>
