<svg width="348" height="490" viewBox="0 0 348 490" fill="none" xmlns="http://www.w3.org/2000/svg">
<g opacity="0.3">
<path fill-rule="evenodd" clip-rule="evenodd" d="M100.056 407.843L81.4213 386.394L80.0016 387.739C74.3061 393.135 73.8604 402.311 79.0062 408.234C84.1519 414.157 92.9405 414.584 98.6361 409.188L100.056 407.843ZM88.8954 418.755L69.4474 398.108L4.14722 465.191C-1.31606 470.804 -1.39134 479.975 3.97909 485.677C9.34951 491.378 18.132 491.45 23.5953 485.838L88.8954 418.755Z" fill="#303030"/>
<path fill-rule="evenodd" clip-rule="evenodd" d="M71.5206 321.26C64.1434 327.231 49.3892 339.981 49.3892 343.217C49.3892 343.751 49.254 344.255 49.1022 344.821C48.1053 348.538 46.3946 354.916 77.6067 390.019C85.072 398.415 91.6552 406.114 97.5097 412.96C119.859 439.097 131.589 452.814 141.234 445.489C150.972 438.093 160.784 428.54 164.472 424.688L71.5206 321.26ZM64.2543 331.559C63.0082 332.76 62.9271 334.784 64.073 336.081L144.742 427.368C145.888 428.665 147.827 428.742 149.073 427.542C150.319 426.341 150.4 424.316 149.254 423.019L68.5853 331.732C67.4393 330.436 65.5003 330.358 64.2543 331.559Z" fill="#303030"/>
</g>
<path opacity="0.4" d="M378.998 0L70.8184 321.838L164.324 424.688L378.998 190.676V0Z" fill="url(#paint0_linear_373_174)"/>
<defs>
<linearGradient id="paint0_linear_373_174" x1="370.699" y1="76.8482" x2="94.29" y2="365.941" gradientUnits="userSpaceOnUse">
<stop stop-color="#EEBC00"/>
<stop offset="0.253774" stop-color="#EEBC00" stop-opacity="0.746226"/>
<stop offset="0.566292" stop-color="#EEBC00" stop-opacity="0.287866"/>
<stop offset="1" stop-color="#EEBC00" stop-opacity="0"/>
</linearGradient>
</defs>
</svg>
