<svg width="40" height="40" viewBox="0 0 40 40" fill="none" xmlns="http://www.w3.org/2000/svg">
<path d="M16.7861 24.2857C17.1806 24.2857 17.5003 23.966 17.5003 23.5715C17.5003 23.177 17.1806 22.8572 16.7861 22.8572C16.3916 22.8572 16.0718 23.177 16.0718 23.5715C16.0718 23.966 16.3916 24.2857 16.7861 24.2857Z" fill="#161616"/>
<path d="M11.0717 33.5714C11.4662 33.5714 11.786 33.2516 11.786 32.8571C11.786 32.4626 11.4662 32.1428 11.0717 32.1428C10.6772 32.1428 10.3574 32.4626 10.3574 32.8571C10.3574 33.2516 10.6772 33.5714 11.0717 33.5714Z" fill="#161616"/>
<path d="M32.5005 30.7144V24.493L28.0433 23.0715C23.6933 25.6144 19.6219 28.7715 18.9219 34.3715C18.6862 36.2715 18.9362 37.6072 19.6933 38.4644C20.5291 39.4072 22.0505 39.7787 23.7791 39.9215C22.9066 39.0873 22.2897 38.022 22.0005 36.8501C21.2005 33.5644 23.2505 30.4501 23.3362 30.3215C23.4643 30.0827 23.7166 29.9369 23.9875 29.9452C24.2585 29.9535 24.5014 30.1145 24.6146 30.3607C24.7278 30.607 24.6919 30.8962 24.5219 31.1072C24.5076 31.1358 22.7362 33.8501 23.3862 36.5215C23.8214 38.0325 24.8674 39.2933 26.2719 40.0001H29.3433C28.1148 39.0501 26.7862 37.4072 26.7862 34.2858C26.7862 29.0501 29.0433 26.7358 29.1362 26.6358C29.4163 26.3557 29.8704 26.3557 30.1505 26.6358C30.4306 26.9159 30.4306 27.37 30.1505 27.6501C30.1291 27.6644 28.2148 29.6858 28.2148 34.2858C28.2148 37.8572 30.1362 38.9215 31.4076 39.6215C31.6505 39.7572 31.8433 39.8787 32.0219 40.0001H35.1648C35.4335 39.9987 35.6788 39.8466 35.7994 39.6064C35.92 39.3662 35.8956 39.0787 35.7362 38.8623C34.2576 36.848 32.5005 33.8058 32.5005 30.7144Z" fill="#161616"/>
<path d="M28.8954 21.8459L32.9775 23.1474C33.353 23.267 33.7545 23.0599 33.8747 22.6845V22.6809C33.9323 22.5004 33.9159 22.3044 33.8289 22.136C33.742 21.9676 33.5917 21.8406 33.4111 21.7831L29.3289 20.4817C28.9534 20.362 28.5519 20.5691 28.4318 20.9445V20.9481C28.3742 21.1286 28.3906 21.3247 28.4776 21.4931C28.5645 21.6615 28.7148 21.7884 28.8954 21.8459Z" fill="#161616"/>
<path d="M38.9289 0.77135C38.7524 0.436308 38.4528 0.182806 38.0932 0.0642072C37.3402 -0.170983 36.538 0.242842 36.2932 0.992779L30.6596 18.6556C30.5395 19.0314 30.7467 19.4334 31.1225 19.5535L32.4839 19.9892C32.6644 20.0469 32.8605 20.0304 33.0289 19.9435C33.1973 19.8565 33.3242 19.7062 33.3817 19.5256L39.0146 1.86421C39.1335 1.50314 39.1027 1.10946 38.9289 0.77135Z" fill="#161616"/>
<path d="M10.3573 5.71418C10.3573 4.13622 11.6365 2.85704 13.2144 2.85704C14.7924 2.85704 16.0716 4.13622 16.0716 5.71418V10.807C16.1573 10.957 16.2359 11.1142 16.3073 11.2713C16.6742 11.0425 17.0777 10.8782 17.5001 10.7856V5.71418C17.5001 3.34725 15.5814 1.42847 13.2144 1.42847C10.8475 1.42847 8.92871 3.34725 8.92871 5.71418V8.27132C9.38673 8.08595 9.86697 7.96109 10.3573 7.8999V5.71418Z" fill="#161616"/>
<path d="M17.5 14.2854H20.3571C20.3536 13.1034 19.3963 12.1461 18.2143 12.1426C17.9704 12.1423 17.7285 12.1859 17.5 12.2712V14.2854Z" fill="#161616"/>
<path d="M17.5 15.7144V18.5715H22.5C22.8945 18.5715 23.2143 18.2517 23.2143 17.8572V16.4286C23.2143 16.0342 22.8945 15.7144 22.5 15.7144H17.5Z" fill="#161616"/>
<path d="M13.2144 15.7144H16.0715V18.5715H13.2144V15.7144Z" fill="#161616"/>
<path d="M3.21457 15.7144H1.07171C0.677218 15.7144 0.357422 16.0342 0.357422 16.4286V17.8572C0.357422 18.2517 0.677218 18.5715 1.07171 18.5715H3.21457V15.7144Z" fill="#161616"/>
<path d="M2.5 12.8569C2.50257 13.387 2.70393 13.8968 3.06429 14.2855H3.21429V13.5712C3.21429 13.1767 3.53408 12.8569 3.92857 12.8569C4.32306 12.8569 4.64286 13.1767 4.64286 13.5712V24.2855C4.64286 24.68 4.96265 24.9998 5.35714 24.9998C5.54322 25.003 5.72208 24.9278 5.85 24.7926C5.99259 24.6628 6.07312 24.4783 6.07143 24.2855V22.1426C6.07496 20.9606 7.03228 20.0033 8.21429 19.9998C9.39775 19.9998 10.3571 20.9592 10.3571 22.1426V27.1426C10.3571 27.5371 10.6769 27.8569 11.0714 27.8569C11.2575 27.8601 11.4364 27.7849 11.5643 27.6498C11.7069 27.5199 11.7874 27.3355 11.7857 27.1426V13.5712C11.7857 13.1767 12.1055 12.8569 12.5 12.8569C12.8945 12.8569 13.2143 13.1767 13.2143 13.5712V14.2855H16.0714V13.2426C15.6959 13.3063 15.3379 13.0592 15.2643 12.6855C14.8442 10.7047 13.0963 9.28728 11.0714 9.28548C10.8609 9.28409 10.6506 9.30082 10.4429 9.33548C9.17639 9.51816 8.06049 10.2638 7.40714 11.3641C7.28438 11.5583 7.07871 11.6848 6.85 11.7069C6.6231 11.7238 6.40128 11.634 6.25 11.4641C5.85052 10.99 5.26275 10.7157 4.64286 10.7141C3.46086 10.7176 2.50353 11.6749 2.5 12.8569Z" fill="#161616"/>
<path d="M17.5076 34.2C17.8458 31.3531 19.0875 28.6895 21.0505 26.6L21.7076 20H17.5005V21.5571C18.4844 21.905 19.0747 22.9112 18.8982 23.9398C18.7217 24.9684 17.8298 25.7203 16.7862 25.7203C15.7425 25.7203 14.8507 24.9684 14.6742 23.9398C14.4977 22.9112 15.0879 21.905 16.0719 21.5571V20H13.2147V27.1429C13.2147 28.3263 12.2554 29.2857 11.0719 29.2857C9.88989 29.2822 8.93256 28.3249 8.92903 27.1429V22.1429C8.93223 21.9568 8.85706 21.7779 8.72189 21.65C8.59204 21.5074 8.4076 21.4269 8.21475 21.4286C7.82026 21.4286 7.50046 21.7484 7.50046 22.1429V24.2857C7.50046 25.4692 6.54107 26.4286 5.3576 26.4286C4.1756 26.425 3.21828 25.4677 3.21475 24.2857V20H1.86475L3.66475 38.0714C3.77493 39.1678 4.6986 40.0019 5.80046 40H17.7719C18.1697 39.9952 18.5583 39.8789 18.8933 39.6643C18.8076 39.5786 18.7076 39.5 18.6219 39.4072C17.579 38.2286 17.2147 36.5214 17.5076 34.2ZM11.0719 35C9.88842 35 8.92903 34.0406 8.92903 32.8571C8.92903 31.6737 9.88842 30.7143 11.0719 30.7143C12.2554 30.7143 13.2147 31.6737 13.2147 32.8571C13.2112 34.0392 12.2539 34.9965 11.0719 35Z" fill="#161616"/>
<path d="M3.21463 7.14289C4.3981 7.14289 5.35749 6.1835 5.35749 5.00004C5.35749 3.81657 4.3981 2.85718 3.21463 2.85718C2.03117 2.85718 1.07178 3.81657 1.07178 5.00004C1.07178 6.1835 2.03117 7.14289 3.21463 7.14289ZM3.21463 4.28575C3.60912 4.28575 3.92892 4.60555 3.92892 5.00004C3.92892 5.39452 3.60912 5.71432 3.21463 5.71432C2.82015 5.71432 2.50035 5.39452 2.50035 5.00004C2.50035 4.60555 2.82015 4.28575 3.21463 4.28575Z" fill="#161616"/>
<path d="M22.5003 8.57136C23.6837 8.57136 24.6431 7.61197 24.6431 6.4285C24.6431 5.24503 23.6837 4.28564 22.5003 4.28564C21.3168 4.28564 20.3574 5.24503 20.3574 6.4285C20.3574 7.61197 21.3168 8.57136 22.5003 8.57136ZM22.5003 5.71422C22.8948 5.71422 23.2146 6.03401 23.2146 6.4285C23.2146 6.82299 22.8948 7.14279 22.5003 7.14279C22.1058 7.14279 21.786 6.82299 21.786 6.4285C21.786 6.03401 22.1058 5.71422 22.5003 5.71422Z" fill="#161616"/>
<path d="M19.643 2.14293C20.0375 2.14293 20.3573 1.82313 20.3573 1.42864C20.3573 1.03415 20.0375 0.714355 19.643 0.714355C19.2485 0.714355 18.9287 1.03415 18.9287 1.42864C18.9287 1.82313 19.2485 2.14293 19.643 2.14293Z" fill="#161616"/>
<path d="M7.50042 2.14293C7.89491 2.14293 8.2147 1.82313 8.2147 1.42864C8.2147 1.03415 7.89491 0.714355 7.50042 0.714355C7.10593 0.714355 6.78613 1.03415 6.78613 1.42864C6.78613 1.82313 7.10593 2.14293 7.50042 2.14293Z" fill="#161616"/>
</svg>
