<svg width="40" height="40" viewBox="0 0 40 40" fill="none" xmlns="http://www.w3.org/2000/svg">
<path d="M19.1918 25.1422C18.9713 26.2807 19.8481 27.3273 20.9936 27.3273H21.2203V36.9769C21.2203 37.46 20.8286 37.8516 20.3455 37.8516H19.1957C19.1957 37.8407 19.1964 37.83 19.1964 37.8191C19.1964 37.5286 19.1598 37.2465 19.0914 36.9769C18.715 35.4942 17.3694 34.394 15.7714 34.394C14.1733 34.394 12.8277 35.4943 12.4514 36.9769C12.3829 37.2463 12.3463 37.5284 12.3463 37.8191C12.3463 37.83 12.347 37.8407 12.3471 37.8516H8.69866C8.69873 37.8407 8.69944 37.83 8.69944 37.8191C8.69944 37.5286 8.6628 37.2465 8.59436 36.9769C8.21803 35.4942 6.87241 34.394 5.27436 34.394C3.67632 34.394 2.3307 35.4943 1.95437 36.9769C1.88593 37.2463 1.84929 37.5284 1.84929 37.8191C1.84929 37.83 1.85 37.8407 1.85007 37.8516H0.874764C0.39164 37.8516 0 37.46 0 36.9769V36.1021V34.9567C0 34.1727 0.635624 33.5372 1.41961 33.5372H2.3582C2.30546 33.461 2.26789 33.373 2.25062 33.2768H7.72608C7.70889 33.3729 7.67124 33.461 7.6185 33.5372H10.3712V21.1181C10.3712 20.5122 10.8623 20.021 11.4683 20.021H14.3426L10.5595 7.76577C10.417 7.30421 10.6756 6.81444 11.1372 6.67194C11.5988 6.52952 12.0886 6.78804 12.2311 7.24968L16.1735 20.0209C16.1735 20.0209 20.1015 20.0559 20.1814 20.0331L19.1918 25.1422Z" fill="#161616"/>
<path d="M15.7711 35.5574C14.5704 35.5574 13.5972 36.5307 13.5972 37.7314C13.5972 38.932 14.5705 39.9053 15.7711 39.9053C16.9718 39.9053 17.9451 38.932 17.9451 37.7314C17.9451 36.5307 16.9718 35.5574 15.7711 35.5574ZM15.7711 38.5059C15.3435 38.5059 14.9968 38.1592 14.9968 37.7315C14.9968 37.3039 15.3435 36.9571 15.7711 36.9571C16.1989 36.9571 16.5455 37.3039 16.5455 37.7315C16.5456 38.1591 16.1988 38.5059 15.7711 38.5059Z" fill="#161616"/>
<path d="M5.27457 35.5574C4.07387 35.5574 3.10059 36.5307 3.10059 37.7314C3.10059 38.932 4.07394 39.9053 5.27457 39.9053C6.47519 39.9053 7.44855 38.932 7.44855 37.7314C7.44855 36.5307 6.47519 35.5574 5.27457 35.5574ZM5.27457 38.5059C4.84691 38.5059 4.50019 38.1592 4.50019 37.7315C4.50019 37.3039 4.84691 36.9571 5.27457 36.9571C5.7023 36.9571 6.04894 37.3039 6.04894 37.7315C6.04894 38.1591 5.70222 38.5059 5.27457 38.5059Z" fill="#161616"/>
<path d="M38.6135 35.2574V33.4198L36.7824 33C34.9953 33.7511 33.3227 34.6835 33.0351 36.3376C32.9383 36.8987 33.041 37.2932 33.352 37.5464C33.6954 37.8249 34.3204 37.9346 35.0306 37.9768C34.6721 37.7304 34.4187 37.4158 34.2999 37.0696C33.9712 36.0992 34.8134 35.1793 34.8486 35.1414C34.9013 35.0708 35.0049 35.0277 35.1162 35.0302C35.2275 35.0327 35.3273 35.0802 35.3738 35.1529C35.4203 35.2257 35.4056 35.3111 35.3357 35.3734C35.3299 35.3819 34.6021 36.1835 34.8692 36.9726C35.048 37.4188 35.4777 37.7912 36.0547 38H37.3165C36.8118 37.7194 36.266 37.2342 36.266 36.3122C36.266 34.7658 37.1932 34.0823 37.2314 34.0527C37.3465 33.97 37.533 33.97 37.6481 34.0527C37.7632 34.1355 37.7632 34.2696 37.6481 34.3523C37.6393 34.3565 36.8529 34.9536 36.8529 36.3122C36.8529 37.3671 37.6422 37.6814 38.1646 37.8882C38.2643 37.9283 38.3436 37.9641 38.4169 38H39.7081C39.8185 37.9996 39.9192 37.9547 39.9688 37.8837C40.0183 37.8128 40.0083 37.7278 39.9428 37.6639C39.3354 37.069 38.6135 36.1705 38.6135 35.2574Z" fill="#161616"/>
<path d="M26.3709 6.59286C28.1695 6.59286 29.6275 5.13481 29.6275 3.33622C29.6275 1.53763 28.1695 0.0795898 26.3709 0.0795898C24.5723 0.0795898 23.1143 1.53763 23.1143 3.33622C23.1143 5.13481 24.5723 6.59286 26.3709 6.59286Z" fill="#161616"/>
<path d="M23.9292 7.63135C24.199 8.39252 24.9914 10.6285 25.2933 11.4803C26.1157 11.4803 26.6703 11.4803 27.4059 11.4803C27.709 10.6252 28.5066 8.37447 28.7699 7.63135C26.7825 7.63135 26.056 7.63135 23.9292 7.63135Z" fill="#161616"/>
<path d="M25.2782 16.3705C21.5327 14.5517 22.535 15.0454 21.4178 14.4774C21.4178 14.4773 23.189 11.5799 23.1891 11.5798L22.5184 13.9087L23.7405 14.5022L24.0803 11.7247C23.4623 9.98068 23.3893 9.77466 22.6778 7.76709C22.011 7.96826 21.5416 8.37209 21.1822 8.8267C20.7616 9.35865 17.884 14.1268 17.7898 14.2729C17.2789 15.0675 17.5819 16.1272 18.4242 16.5361L23.9053 19.1978C24.6861 19.5769 25.6262 19.2512 26.0054 18.4706C26.3844 17.6899 26.0589 16.7497 25.2782 16.3705Z" fill="#161616"/>
<path d="M4.52938 20.0587C4.52938 19.4089 5.10878 18.8822 5.8235 18.8822C6.53822 18.8822 7.11762 19.4089 7.11762 20.0587V22.1557C7.15644 22.2175 7.19203 22.2822 7.22438 22.3469C7.39059 22.2527 7.57334 22.185 7.76468 22.1469V20.0587C7.76468 19.084 6.89558 18.2939 5.8235 18.2939C4.75142 18.2939 3.88232 19.084 3.88232 20.0587V21.1116C4.08978 21.0353 4.3073 20.9838 4.52938 20.9587V20.0587Z" fill="#161616"/>
<path d="M7.76465 23.5882H9.05876C9.05716 23.1015 8.62355 22.7073 8.08818 22.7058C7.97772 22.7057 7.86814 22.7236 7.76465 22.7588V23.5882Z" fill="#161616"/>
<path d="M7.76465 24.1765V25.353H10.0294C10.208 25.353 10.3529 25.2213 10.3529 25.0589V24.4706C10.3529 24.3082 10.208 24.1765 10.0294 24.1765H7.76465Z" fill="#161616"/>
<path d="M5.82373 24.1765H7.11785V25.353H5.82373V24.1765Z" fill="#161616"/>
<path d="M1.29412 24.1765H0.323529C0.144849 24.1765 0 24.3082 0 24.4706V25.0589C0 25.2213 0.144849 25.353 0.323529 25.353H1.29412V24.1765Z" fill="#161616"/>
<path d="M0.970703 22.9999C0.971866 23.2182 1.06307 23.4281 1.22629 23.5882H1.29423V23.294C1.29423 23.1316 1.43908 22.9999 1.61776 22.9999C1.79644 22.9999 1.94129 23.1316 1.94129 23.294V27.7058C1.94129 27.8682 2.08614 27.9999 2.26482 27.9999C2.3491 28.0012 2.43012 27.9703 2.48806 27.9146C2.55264 27.8612 2.58912 27.7852 2.58835 27.7058V26.8234C2.58995 26.3367 3.02356 25.9425 3.55894 25.9411C4.09498 25.9411 4.52953 26.3361 4.52953 26.8234V28.8823C4.52953 29.0447 4.67438 29.1764 4.85306 29.1764C4.93734 29.1777 5.01835 29.1468 5.07629 29.0911C5.14088 29.0376 5.17735 28.9617 5.17659 28.8823V23.294C5.17659 23.1316 5.32143 22.9999 5.50012 22.9999C5.6788 22.9999 5.82365 23.1316 5.82365 23.294V23.5882H7.11776V23.1587C6.94765 23.185 6.78552 23.0832 6.75217 22.9293C6.5619 22.1137 5.77021 21.5301 4.85306 21.5293C4.75768 21.5288 4.66243 21.5356 4.56835 21.5499C3.99471 21.6251 3.48928 21.9322 3.19335 22.3852C3.13775 22.4652 3.04459 22.5173 2.941 22.5264C2.83822 22.5333 2.73775 22.4964 2.66923 22.4264C2.48829 22.2312 2.22207 22.1183 1.94129 22.1176C1.40591 22.119 0.972302 22.5132 0.970703 22.9999Z" fill="#161616"/>
<path d="M7.76791 31.7882C7.92109 30.616 8.4835 29.5192 9.37262 28.6588L9.67026 25.9412H7.76468V26.5823C8.21035 26.7256 8.47769 27.1399 8.39776 27.5634C8.31782 27.987 7.91386 28.2966 7.44115 28.2966C6.96843 28.2966 6.56447 27.987 6.48454 27.5634C6.4046 27.1399 6.67194 26.7256 7.11762 26.5823V25.9412H5.8235V28.8823C5.8235 29.3696 5.38895 29.7647 4.85291 29.7647C4.31753 29.7632 3.88392 29.369 3.88232 28.8823V26.8235C3.88377 26.7469 3.84973 26.6732 3.7885 26.6206C3.72968 26.5619 3.64614 26.5287 3.55879 26.5294C3.38011 26.5294 3.23526 26.6611 3.23526 26.8235V27.7059C3.23526 28.1932 2.80072 28.5882 2.26468 28.5882C1.7293 28.5868 1.29569 28.1926 1.29409 27.7059V25.9412H0.682617L1.49791 33.3823C1.54782 33.8338 1.96618 34.1772 2.46526 34.1765H7.88762C8.06782 34.1745 8.2438 34.1266 8.39556 34.0382C8.35673 34.0029 8.31144 33.9706 8.27262 33.9323C7.80026 33.447 7.63526 32.7441 7.76791 31.7882ZM4.85291 32.1176C4.31687 32.1176 3.88232 31.7226 3.88232 31.2353C3.88232 30.748 4.31687 30.3529 4.85291 30.3529C5.38895 30.3529 5.8235 30.748 5.8235 31.2353C5.8219 31.722 5.38829 32.1162 4.85291 32.1176Z" fill="#161616"/>
<path d="M1.29432 20.647C1.83036 20.647 2.26491 20.252 2.26491 19.7647C2.26491 19.2774 1.83036 18.8823 1.29432 18.8823C0.758278 18.8823 0.32373 19.2774 0.32373 19.7647C0.32373 20.252 0.758278 20.647 1.29432 20.647ZM1.29432 19.4706C1.473 19.4706 1.61785 19.6022 1.61785 19.7647C1.61785 19.9271 1.473 20.0588 1.29432 20.0588C1.11564 20.0588 0.970789 19.9271 0.970789 19.7647C0.970789 19.6022 1.11564 19.4706 1.29432 19.4706Z" fill="#161616"/>
<path d="M10.0292 21.2352C10.5652 21.2352 10.9998 20.8401 10.9998 20.3528C10.9998 19.8655 10.5652 19.4705 10.0292 19.4705C9.49314 19.4705 9.05859 19.8655 9.05859 20.3528C9.05859 20.8401 9.49314 21.2352 10.0292 21.2352ZM10.0292 20.0587C10.2079 20.0587 10.3527 20.1904 10.3527 20.3528C10.3527 20.5152 10.2079 20.6469 10.0292 20.6469C9.8505 20.6469 9.70565 20.5152 9.70565 20.3528C9.70565 20.1904 9.8505 20.0587 10.0292 20.0587Z" fill="#161616"/>
<path d="M8.73515 18.5882C8.91383 18.5882 9.05868 18.4566 9.05868 18.2941C9.05868 18.1317 8.91383 18 8.73515 18C8.55647 18 8.41162 18.1317 8.41162 18.2941C8.41162 18.4566 8.55647 18.5882 8.73515 18.5882Z" fill="#161616"/>
<path d="M3.23515 18.5882C3.41383 18.5882 3.55868 18.4566 3.55868 18.2941C3.55868 18.1317 3.41383 18 3.23515 18C3.05647 18 2.91162 18.1317 2.91162 18.2941C2.91162 18.4566 3.05647 18.5882 3.23515 18.5882Z" fill="#161616"/>
<path fill-rule="evenodd" clip-rule="evenodd" d="M39.9953 34.6398C39.9938 33.2211 39.0275 32.0293 37.7178 31.6832L37.715 29.0001H36.1409L36.1437 31.6848C34.8348 32.0336 33.871 33.2275 33.8725 34.6461L33.8728 34.8786L39.996 34.8733L39.9953 34.6398ZM36.1399 28.0001L36.1275 16.1484L33.5764 17.211C32.7384 17.5601 31.7932 17.1253 31.4935 16.2925C31.1973 15.4694 30.5409 13.8721 30.3781 13.4759L30.3466 13.3991L32.606 25.3253C32.7106 25.8652 32.2969 26.3653 31.7489 26.3653H30.5498V38.0268C30.5498 39.0682 29.7055 39.9125 28.664 39.9125C27.6166 39.9125 26.7782 39.0603 26.7782 38.0268V26.3653H25.964V38.0267C25.964 39.0682 25.1197 39.9125 24.0783 39.9125C23.0368 39.9125 22.1925 39.0682 22.1925 38.0267V26.3652H20.9934C20.4483 26.3652 20.0316 25.8657 20.1363 25.3252L21.3465 19.0769L22.839 19.8016L22.4979 21.7859C22.4168 22.2582 22.7827 22.6881 23.2576 22.6881C24.8928 22.6881 26.169 22.6906 27.3933 22.6929C28.0731 22.6942 28.7368 22.6955 29.4372 22.6963C29.6782 22.6965 29.9073 22.5903 30.0639 22.407C30.2204 22.2237 30.289 21.9812 30.2513 21.7432L28.6506 11.6342L30.0253 7.75501C31.2335 8.09204 32.14 9.12149 32.7268 10.8289C32.9386 11.4454 33.189 12.0513 33.4692 12.7294C33.5943 13.0319 33.7252 13.3488 33.8614 13.6874L36.1235 12.7452L36.1166 6.00009H37.6911L37.6977 12.2889C38.2572 12.3421 38.7699 12.6941 39.0011 13.2491C39.3348 14.0502 38.9559 14.9702 38.1547 15.3039L37.701 15.4929L37.714 28.0001H36.1399ZM37.6875 2.56822L37.6901 5.00009H36.1155L36.113 2.56978C36.1125 2.13502 36.4646 1.78221 36.8995 1.78174H36.9003C37.3347 1.78174 37.6871 2.13361 37.6875 2.56822Z" fill="#161616"/>
</svg>
