<svg width="40" height="40" viewBox="0 0 40 40" fill="none" xmlns="http://www.w3.org/2000/svg">
<path fill-rule="evenodd" clip-rule="evenodd" d="M20 40C26.1499 40 31.6515 37.2242 35.3203 32.8571H31.4286C30.6396 32.8571 30 32.2175 30 31.4286C30 30.6396 30.6396 30 31.4286 30H37.3244C37.9507 28.9172 38.4785 27.7703 38.8954 26.5714H37.8571C37.4626 26.5714 37.1428 26.2516 37.1428 25.8571C37.1428 25.4627 37.4626 25.1429 37.8571 25.1429H39.2857C39.3013 25.1429 39.3168 25.1434 39.3322 25.1443C39.7678 23.5029 40 21.7786 40 20C40 8.9543 31.0457 0 20 0C14.5506 0 9.61016 2.17947 6.00291 5.71429H7.14284C7.93182 5.71429 8.57141 6.35388 8.57141 7.14286C8.57141 7.93184 7.93182 8.57143 7.14284 8.57143H3.58483C2.10746 10.6895 1.02953 13.1068 0.460256 15.7143H8.57142C9.3604 15.7143 9.99999 16.3539 9.99999 17.1429C9.99999 17.9318 9.3604 18.5714 8.57142 18.5714H0.0502344C0.0169329 19.0433 0 19.5197 0 20C0 31.0457 8.9543 40 20 40ZM19.0699 13.8043C17.83 13.9478 16.9164 14.6918 16.9164 15.8795C16.9164 16.8192 17.5168 17.4979 18.7045 17.8894L18.7045 17.8894L18.7045 17.8894C18.822 17.9286 18.9394 17.9677 19.0699 17.9938V13.8043ZM21.0799 26.2686C22.4633 26.1511 23.4422 25.3027 23.4422 24.0237C23.4422 22.9535 22.8027 22.2356 21.3409 21.831C21.2626 21.818 21.1712 21.7919 21.0799 21.7658L21.0799 21.7658V26.2686ZM21.0929 29.0877L21.106 30.7453H18.9916L19.0046 29.1138C14.6845 28.8006 13.0661 26.2555 13.04 23.841H16.4596C16.5248 25.0417 17.3993 26.0467 19.0699 26.2686V21.4134L17.9475 21.1654C15.5199 20.6303 13.3794 19.1163 13.3794 16.1535C13.3794 13.0212 15.8592 11.2853 19.0177 10.9981V9.31449H21.1321V11.0112C24.4341 11.3636 26.5615 13.4258 26.6137 16.1405H23.2725C23.2334 15.0964 22.4633 14.0522 21.0799 13.8304V18.3854L22.1892 18.6203C24.8126 19.1815 26.94 20.5128 26.94 23.6713C26.94 26.7776 24.6691 28.7484 21.0929 29.0877Z" fill="#161616"/>
</svg>
