<svg width="40" height="40" viewBox="0 0 40 40" fill="none" xmlns="http://www.w3.org/2000/svg">
<g clip-path="url(#clip0_373_23)">
<path d="M28.1458 7.55788C24.51 3.21037 20.921 0.384681 20.7703 0.266716C19.951 -0.374122 18.75 0.211484 18.75 1.25106V6.74775C18.75 9.58609 14.9938 10.585 13.5861 8.11802C13.1484 7.35289 12.0841 7.27226 11.5331 7.94537C7.7503 12.5618 4.37549 18.3824 4.37549 24.3753C4.37549 32.9906 11.3846 39.9998 20 39.9998C28.6153 39.9998 35.6245 32.9906 35.6245 24.3753C35.6245 18.2274 32.0746 12.2563 28.1458 7.55788ZM13.1252 20.0004C13.1252 18.6216 14.247 17.5005 15.6251 17.5005C17.0032 17.5005 18.125 18.6216 18.125 20.0004C18.125 21.3793 17.0032 22.5004 15.6251 22.5004C14.247 22.5004 13.1252 21.3793 13.1252 20.0004ZM16.6118 30.7673C16.1903 31.3106 15.4047 31.4118 14.858 30.9868C14.3127 30.5626 14.215 29.7775 14.6384 29.2329L23.3881 17.9833C23.8123 17.438 24.5975 17.3404 25.142 17.7638C25.6873 18.188 25.7849 18.9731 25.3615 19.5176L16.6118 30.7673ZM24.3748 31.2501C22.9967 31.2501 21.8749 30.129 21.8749 28.7501C21.8749 27.3713 22.9967 26.2502 24.3748 26.2502C25.7529 26.2502 26.8747 27.3713 26.8747 28.7501C26.8747 30.129 25.7529 31.2501 24.3748 31.2501Z" fill="black"/>
</g>
<defs>
<clipPath id="clip0_373_23">
<rect width="40" height="40" fill="white"/>
</clipPath>
</defs>
</svg>
