<svg width="80" height="69" viewBox="0 0 80 69" fill="none" xmlns="http://www.w3.org/2000/svg">
<path d="M59.3289 0H18.5235L0 33.4302L18.5235 69H62.0134L80 33.4302L59.3289 0Z" fill="#FEC901"/>
<path d="M57.1596 33.3787H53.1739H52.6407C51.4625 33.3787 50.5068 34.3343 50.5068 35.5165V35.7483C50.5068 36.9317 51.4625 37.8879 52.6424 37.8879H56.6321H57.1596C58.3401 37.8879 59.2986 36.9277 59.2986 35.7483L59.2963 35.5137C59.2986 34.3343 58.3401 33.3787 57.1596 33.3787Z" fill="black"/>
<path d="M57.1617 28.0452H56.2203V17.7024C56.2203 16.2159 55.0044 15 53.5173 15H35.6843C34.1978 15 32.9819 16.2165 32.9819 17.7024V25.123C29.3849 27.1564 25.6749 29.2806 25.6669 29.2857C23.6529 30.1146 20.7021 32.7891 20.7021 39.1045C20.7021 39.6685 20.7393 40.1891 20.7912 40.692C20.8078 40.8393 20.826 40.9809 20.846 41.123C20.898 41.4924 20.963 41.8457 21.0407 42.1814C21.0686 42.3013 21.0903 42.4263 21.1206 42.541C21.2251 42.9292 21.3461 43.2934 21.4819 43.6399C21.5504 43.8118 21.6247 43.9682 21.6994 44.1292C21.7794 44.2987 21.8598 44.4654 21.946 44.6212C22.0459 44.8091 22.1458 44.99 22.2555 45.1618C22.2817 45.2018 22.3103 45.2383 22.3371 45.2789C24.9379 49.2104 29.736 49.2281 29.736 49.2281H32.9819V52.2987C32.9819 53.7835 34.1978 54.9994 35.6843 54.9994H53.5168C55.0038 54.9994 56.2198 53.7829 56.2198 52.2987V48.5533H56.6319V48.551H57.1577C58.3399 48.551 59.2984 47.5948 59.2961 46.4126L59.2984 46.1797C59.2961 44.9991 58.3399 44.0458 57.1594 44.0458H56.6319H53.1731H52.6399C51.4594 44.0458 50.5061 45.0014 50.5061 46.1814V46.4183C50.5061 47.5954 51.4617 48.555 52.6416 48.555H54.3394V50.0016H34.8617V30.5975C35.8402 29.977 36.7461 29.3799 37.2627 28.9797C39.8801 26.9555 42.3645 25.3434 42.7007 23.8814C43.1386 21.9844 41.6823 20.386 39.1563 21.6984C38.3605 22.1117 36.7273 23.0177 34.8617 24.0652V19.2826L54.3394 19.2854V28.0441H53.1731V28.0464H52.6428C51.4617 28.0464 50.5032 29.002 50.5032 30.1854V30.4172C50.5032 31.6 51.4617 32.5533 52.6399 32.5533H53.1703H56.6291H57.1605C58.3399 32.5533 59.2961 31.5977 59.2961 30.4172V30.1791C59.2984 29.0037 58.3428 28.0452 57.1617 28.0452ZM44.5983 50.9503C45.3472 50.9503 45.9512 51.5549 45.9512 52.3021C45.9512 53.0511 45.3466 53.6534 44.5983 53.6534C43.8521 53.6534 43.2493 53.0494 43.2493 52.3021C43.2505 51.5572 43.855 50.9503 44.5983 50.9503ZM47.4543 17.602H41.748C41.5687 17.602 41.4203 17.4564 41.4203 17.2766C41.4203 17.0939 41.5687 16.9483 41.748 16.9483H47.4543C47.6335 16.9483 47.7796 17.0933 47.7796 17.2766C47.7796 17.4558 47.6335 17.602 47.4543 17.602Z" fill="black"/>
<path d="M57.1595 38.7124H56.6321H52.6406C51.4624 38.7124 50.5039 39.6709 50.5039 40.8508V41.0849C50.5039 42.266 51.4601 43.2216 52.6406 43.2216H53.171H56.6298H57.1584C58.3406 43.2216 59.294 42.266 59.2968 41.0849V40.8508C59.2963 39.6709 58.3429 38.7124 57.1595 38.7124Z" fill="black"/>
</svg>
