<svg width="80" height="69" viewBox="0 0 80 69" fill="none" xmlns="http://www.w3.org/2000/svg">
<path d="M59.3289 0H18.5235L0 33.4302L18.5235 69H62.0134L80 33.4302L59.3289 0Z" fill="#FEC901"/>
<g clip-path="url(#clip0_373_133)">
<path d="M52.3889 29.7423V30.4201C52.774 30.39 53.7297 30.4091 54.7424 30.6962V29.7423C54.7424 21.6133 48.1291 15 40.0001 15C31.8711 15 25.2578 21.6133 25.2578 29.7423V30.6962C26.1046 30.4562 27.0562 30.3766 27.6113 30.4201V29.7423C27.6113 22.9117 33.1687 17.3535 40.0001 17.3535C46.8315 17.3535 52.3889 22.9117 52.3889 29.7423Z" fill="black"/>
<path d="M52.3889 45.5993C52.3889 48.8765 49.832 51.1034 47.0081 51.1034H44.2657C43.8269 50.1907 42.8937 49.5607 41.8132 49.5607H38.187C36.6849 49.5607 35.4673 50.7783 35.4673 52.2803C35.4673 53.7824 36.6849 55 38.187 55H41.8132C42.8938 55 43.8271 54.3698 44.2659 53.4569H47.0081C50.9646 53.4569 54.7424 50.4321 54.7424 45.3193C53.8103 45.5868 52.8709 45.6392 52.3889 45.5993Z" fill="black"/>
<path d="M27.3372 32.7642C24.3201 32.7642 21.9371 35.2886 22.0991 38.3019C22.245 41.0264 24.4997 43.2027 27.2313 43.256C28.0295 43.276 28.5116 42.6941 28.5116 42.0761V33.9449C28.5117 33.3161 28.0181 32.7642 27.3372 32.7642Z" fill="black"/>
<path d="M52.643 32.7642C51.9971 32.77 51.4883 33.3016 51.4883 33.9448V42.0762C51.4883 42.6888 51.9651 43.2766 52.7678 43.2561C55.4796 43.2042 57.7544 41.0446 57.9008 38.302C58.0604 35.3337 55.7349 32.7642 52.643 32.7642Z" fill="black"/>
<path d="M45.5079 38.251C46.7566 37.0023 46.7566 34.9777 45.5079 33.729C44.2592 32.4803 42.2345 32.4803 40.9858 33.729L39.9998 34.715L39.0138 33.729C37.765 32.4803 35.7404 32.4803 34.4917 33.729C33.243 34.9777 33.243 37.0023 34.4917 38.251L39.445 43.2044C39.7514 43.5107 40.2481 43.5107 40.5545 43.2044L45.5079 38.251Z" fill="black"/>
</g>
<defs>
<clipPath id="clip0_373_133">
<rect width="40" height="40" fill="white" transform="translate(20 15)"/>
</clipPath>
</defs>
</svg>
